<?xml version="1.0" encoding="utf-8"?>
<!-- Generator: Adobe Illustrator 16.0.4, SVG Export Plug-In . SVG Version: 6.00 Build 0)  -->
<!DOCTYPE svg PUBLIC "-//W3C//DTD SVG 1.1//EN" "http://www.w3.org/Graphics/SVG/1.1/DTD/svg11.dtd">
<svg version="1.1" id="Layer_1" xmlns="http://www.w3.org/2000/svg" xmlns:xlink="http://www.w3.org/1999/xlink" x="0px" y="0px"
	 width="1091.61px" height="587.61px" viewBox="0 0 1091.61 587.61" enable-background="new 0 0 1091.61 587.61"
	 xml:space="preserve">
<image overflow="visible" width="4700" height="2530" id="background-image" xlink:href="//melrose.sanchezstudio.co/maps/daufuskie-island.jpg"  transform="matrix(0.2323 0 0 0.2323 0.3872 -0.6128)">
</image>
<g id="landmarks-daufuskie">
	<g id="atlantic-ocean">
		<path fill="#FFFFFF" d="M614.79,494.27h0.44l7.75,16.21h-0.55l-2.3-4.83h-10.25l-2.3,4.83h-0.53L614.79,494.27z M619.9,505.19
			l-4.9-10.26l-4.9,10.26H619.9z"/>
		<polygon fill="#FFFFFF" points="641.77,494.84 635.96,494.84 635.96,494.38 648.1,494.38 648.1,494.84 642.28,494.84
			642.28,510.48 641.77,510.48 		"/>
		<polygon fill="#FFFFFF" points="664.68,494.38 665.19,494.38 665.19,510.02 675.08,510.02 675.08,510.48 664.68,510.48 		"/>
		<path fill="#FFFFFF" d="M697.89,494.27h0.44l7.75,16.21h-0.55l-2.3-4.83h-10.25l-2.3,4.83h-0.53L697.89,494.27z M703,505.19
			l-4.9-10.26l-4.9,10.26H703z"/>
		<polygon fill="#FFFFFF" points="722.89,494.38 723.33,494.38 735.56,509.65 735.56,494.38 736.05,494.38 736.05,510.48
			735.61,510.48 723.38,495.21 723.38,510.48 722.89,510.48 		"/>
		<polygon fill="#FFFFFF" points="758.45,494.84 752.63,494.84 752.63,494.38 764.78,494.38 764.78,494.84 758.96,494.84
			758.96,510.48 758.45,510.48 		"/>
		<rect x="781.52" y="494.38" fill="#FFFFFF" width="0.51" height="16.1"/>
		<path fill="#FFFFFF" d="M799.83,502.48v-0.05c0-4.53,3.31-8.32,7.91-8.32c3.04,0,4.62,1.13,6.12,2.55l-0.35,0.34
			c-1.29-1.24-2.92-2.44-5.79-2.44c-4.28,0-7.38,3.63-7.38,7.84v0.05c0,4.25,3.15,7.84,7.38,7.84c2.62,0,4.58-1.24,5.86-2.62
			l0.37,0.34c-1.4,1.47-3.43,2.74-6.25,2.74C803.16,510.76,799.83,507.03,799.83,502.48"/>
		<path fill="#FFFFFF" d="M850.11,502.45v-0.05c0-4.39,3.13-8.3,8-8.3s8,3.91,8,8.3v0.05c0,4.39-3.13,8.3-8,8.3
			S850.11,506.85,850.11,502.45 M865.61,502.48v-0.05c0-4.12-3.04-7.86-7.52-7.86c-4.51,0-7.47,3.68-7.47,7.82v0.05
			c0,4.12,3.04,7.86,7.52,7.86C862.64,510.3,865.61,506.62,865.61,502.48"/>
		<path fill="#FFFFFF" d="M883.04,502.48v-0.05c0-4.53,3.31-8.32,7.91-8.32c3.04,0,4.62,1.13,6.12,2.55l-0.35,0.34
			c-1.29-1.24-2.92-2.44-5.79-2.44c-4.28,0-7.38,3.63-7.38,7.84v0.05c0,4.25,3.15,7.84,7.38,7.84c2.62,0,4.58-1.24,5.86-2.62
			l0.37,0.34c-1.4,1.47-3.43,2.74-6.25,2.74C886.38,510.76,883.04,507.03,883.04,502.48"/>
		<polygon fill="#FFFFFF" points="914.02,494.38 925.27,494.38 925.27,494.84 914.53,494.84 914.53,502.15 924.28,502.15
			924.28,502.61 914.53,502.61 914.53,510.02 925.38,510.02 925.38,510.48 914.02,510.48 		"/>
		<path fill="#FFFFFF" d="M949.01,494.27h0.44l7.75,16.21h-0.55l-2.3-4.83h-10.26l-2.3,4.83h-0.53L949.01,494.27z M954.11,505.19
			l-4.9-10.26l-4.9,10.26H954.11z"/>
		<polygon fill="#FFFFFF" points="974.01,494.38 974.44,494.38 986.68,509.65 986.68,494.38 987.16,494.38 987.16,510.48
			986.72,510.48 974.49,495.21 974.49,510.48 974.01,510.48 		"/>
	</g>
	<g id="hilton-head">
		<polygon fill="#FFFFFF" points="745.56,247.07 748.03,247.07 748.03,251.51 752.57,251.51 752.57,247.07 755.04,247.07
			755.04,258.28 752.57,258.28 752.57,253.78 748.03,253.78 748.03,258.28 745.56,258.28 		"/>
		<rect x="767.28" y="247.07" fill="#FFFFFF" width="2.46" height="11.2"/>
		<polygon fill="#FFFFFF" points="781.98,247.07 784.44,247.07 784.44,256.04 790.03,256.04 790.03,258.28 781.98,258.28 		"/>
		<polygon fill="#FFFFFF" points="802.33,249.35 798.92,249.35 798.92,247.07 808.21,247.07 808.21,249.35 804.8,249.35
			804.8,258.28 802.33,258.28 		"/>
		<path fill="#FFFFFF" d="M818.55,252.71v-0.03c0-3.19,2.51-5.79,5.97-5.79c3.46,0,5.94,2.58,5.94,5.76v0.03
			c0,3.19-2.51,5.79-5.97,5.79S818.55,255.89,818.55,252.71 M827.89,252.71v-0.03c0-1.92-1.41-3.52-3.39-3.52
			c-1.98,0-3.36,1.57-3.36,3.49v0.03c0,1.92,1.41,3.52,3.39,3.52C826.51,256.2,827.89,254.63,827.89,252.71"/>
		<polygon fill="#FFFFFF" points="842.09,247.07 844.36,247.07 849.61,253.97 849.61,247.07 852.05,247.07 852.05,258.28
			849.95,258.28 844.52,251.16 844.52,258.28 842.09,258.28 		"/>
		<polygon fill="#FFFFFF" points="878.41,247.07 880.88,247.07 880.88,251.51 885.42,251.51 885.42,247.07 887.89,247.07
			887.89,258.28 885.42,258.28 885.42,253.78 880.88,253.78 880.88,258.28 878.41,258.28 		"/>
		<polygon fill="#FFFFFF" points="900.01,247.07 908.46,247.07 908.46,249.27 902.46,249.27 902.46,251.54 907.74,251.54
			907.74,253.73 902.46,253.73 902.46,256.08 908.54,256.08 908.54,258.28 900.01,258.28 		"/>
		<path fill="#FFFFFF" d="M924.01,246.99h2.27l4.8,11.28h-2.58l-1.02-2.51h-4.74l-1.02,2.51h-2.51L924.01,246.99z M926.61,253.59
			l-1.49-3.63l-1.49,3.63H926.61z"/>
		<path fill="#FFFFFF" d="M942.25,247.07h4.37c3.52,0,5.96,2.42,5.96,5.57v0.03c0,3.15-2.43,5.6-5.96,5.6h-4.37V247.07z
			 M946.62,256.05c2.02,0,3.38-1.36,3.38-3.35v-0.03c0-1.98-1.36-3.38-3.38-3.38h-1.9v6.75H946.62z"/>
		<rect x="795.02" y="272.07" fill="#FFFFFF" width="2.47" height="11.2"/>
		<path fill="#FFFFFF" d="M808.96,281.65l1.46-1.74c1.01,0.83,2.06,1.36,3.34,1.36c1.01,0,1.62-0.4,1.62-1.06v-0.03
			c0-0.62-0.38-0.94-2.26-1.42c-2.26-0.58-3.71-1.2-3.71-3.43v-0.03c0-2.03,1.63-3.38,3.92-3.38c1.63,0,3.03,0.51,4.16,1.42
			l-1.28,1.86c-0.99-0.69-1.97-1.1-2.91-1.1s-1.44,0.43-1.44,0.98v0.03c0,0.74,0.48,0.98,2.42,1.47c2.27,0.59,3.55,1.41,3.55,3.36
			v0.03c0,2.23-1.7,3.47-4.11,3.47C812.01,283.44,810.3,282.85,808.96,281.65"/>
		<polygon fill="#FFFFFF" points="829.4,272.07 831.87,272.07 831.87,281.04 837.45,281.04 837.45,283.28 829.4,283.28 		"/>
		<path fill="#FFFFFF" d="M852.59,271.99h2.27l4.8,11.28h-2.58l-1.02-2.51h-4.74l-1.02,2.51h-2.51L852.59,271.99z M855.18,278.59
			l-1.49-3.63l-1.49,3.63H855.18z"/>
		<polygon fill="#FFFFFF" points="870.83,272.07 873.1,272.07 878.35,278.97 878.35,272.07 880.78,272.07 880.78,283.28
			878.69,283.28 873.26,276.16 873.26,283.28 870.83,283.28 		"/>
		<path fill="#FFFFFF" d="M892.91,272.07h4.37c3.52,0,5.96,2.42,5.96,5.57v0.03c0,3.15-2.43,5.6-5.96,5.6h-4.37V272.07z
			 M897.28,281.05c2.02,0,3.38-1.36,3.38-3.35v-0.03c0-1.98-1.36-3.38-3.38-3.38h-1.9v6.75H897.28z"/>
	</g>
	<g id="daufuskie-island">
		<path fill="#FFFFFF" d="M192.26,230.35h4.37c3.52,0,5.96,2.42,5.96,5.57v0.03c0,3.15-2.43,5.6-5.96,5.6h-4.37V230.35z
			 M196.63,239.33c2.02,0,3.38-1.36,3.38-3.35v-0.03c0-1.98-1.36-3.38-3.38-3.38h-1.9v6.75H196.63z"/>
		<path fill="#FFFFFF" d="M217.26,230.27h2.27l4.8,11.28h-2.58l-1.02-2.51h-4.74l-1.02,2.51h-2.51L217.26,230.27z M219.85,236.87
			l-1.49-3.63l-1.49,3.63H219.85z"/>
		<path fill="#FFFFFF" d="M234.92,236.76v-6.4h2.46v6.34c0,1.82,0.91,2.77,2.42,2.77c1.5,0,2.42-0.91,2.42-2.69v-6.42h2.47v6.32
			c0,3.39-1.91,5.06-4.91,5.06C236.76,241.73,234.92,240.05,234.92,236.76"/>
		<polygon fill="#FFFFFF" points="256.63,230.35 265.16,230.35 265.16,232.59 259.1,232.59 259.1,234.98 264.44,234.98
			264.44,237.22 259.1,237.22 259.1,241.56 256.63,241.56 		"/>
		<path fill="#FFFFFF" d="M276.39,236.76v-6.4h2.46v6.34c0,1.82,0.91,2.77,2.42,2.77c1.5,0,2.42-0.91,2.42-2.69v-6.42h2.47v6.32
			c0,3.39-1.91,5.06-4.91,5.06C278.23,241.73,276.39,240.05,276.39,236.76"/>
		<path fill="#FFFFFF" d="M297.34,239.93l1.46-1.74c1.01,0.83,2.06,1.36,3.34,1.36c1.01,0,1.62-0.4,1.62-1.06v-0.03
			c0-0.62-0.38-0.94-2.26-1.42c-2.26-0.58-3.71-1.2-3.71-3.43v-0.03c0-2.03,1.63-3.38,3.92-3.38c1.63,0,3.03,0.51,4.16,1.42
			l-1.28,1.86c-0.99-0.69-1.97-1.1-2.91-1.1s-1.44,0.43-1.44,0.98v0.03c0,0.74,0.48,0.98,2.42,1.47c2.27,0.59,3.55,1.41,3.55,3.36
			v0.03c0,2.23-1.7,3.47-4.11,3.47C300.39,241.72,298.68,241.13,297.34,239.93"/>
		<polygon fill="#FFFFFF" points="317.78,230.35 320.25,230.35 320.25,235.25 324.8,230.35 327.77,230.35 323.21,235.11
			327.98,241.56 325.02,241.56 321.55,236.79 320.25,238.13 320.25,241.56 317.78,241.56 		"/>
		<rect x="339.02" y="230.35" fill="#FFFFFF" width="2.46" height="11.2"/>
		<polygon fill="#FFFFFF" points="353.72,230.35 362.17,230.35 362.17,232.55 356.17,232.55 356.17,234.82 361.45,234.82
			361.45,237.01 356.17,237.01 356.17,239.37 362.25,239.37 362.25,241.56 353.72,241.56 		"/>
		<rect x="223.21" y="255.35" fill="#FFFFFF" width="2.46" height="11.2"/>
		<path fill="#FFFFFF" d="M237.14,264.93l1.46-1.74c1.01,0.83,2.06,1.36,3.34,1.36c1.01,0,1.62-0.4,1.62-1.06v-0.03
			c0-0.62-0.38-0.94-2.26-1.42c-2.26-0.58-3.71-1.2-3.71-3.43v-0.03c0-2.03,1.63-3.38,3.92-3.38c1.63,0,3.03,0.51,4.16,1.42
			l-1.28,1.86c-0.99-0.69-1.97-1.1-2.91-1.1s-1.44,0.43-1.44,0.98v0.03c0,0.74,0.48,0.98,2.42,1.47c2.27,0.59,3.55,1.41,3.55,3.36
			v0.03c0,2.23-1.7,3.47-4.11,3.47C240.2,266.72,238.49,266.13,237.14,264.93"/>
		<polygon fill="#FFFFFF" points="257.59,255.35 260.06,255.35 260.06,264.32 265.64,264.32 265.64,266.56 257.59,266.56 		"/>
		<path fill="#FFFFFF" d="M280.78,255.27h2.27l4.8,11.28h-2.58l-1.02-2.51h-4.74l-1.02,2.51h-2.51L280.78,255.27z M283.37,261.87
			l-1.49-3.63l-1.49,3.63H283.37z"/>
		<polygon fill="#FFFFFF" points="299.02,255.35 301.29,255.35 306.54,262.25 306.54,255.35 308.97,255.35 308.97,266.56
			306.88,266.56 301.45,259.44 301.45,266.56 299.02,266.56 		"/>
		<path fill="#FFFFFF" d="M321.1,255.35h4.37c3.52,0,5.96,2.42,5.96,5.57v0.03c0,3.15-2.43,5.6-5.96,5.6h-4.37V255.35z
			 M325.47,264.33c2.02,0,3.38-1.36,3.38-3.35v-0.03c0-1.98-1.36-3.38-3.38-3.38h-1.9v6.75H325.47z"/>
	</g>
	<g id="palmetto-bluff">
		<path fill="#FFFFFF" d="M44.53,29.51h4.58c2.67,0,4.29,1.58,4.29,3.87v0.03c0,2.59-2.02,3.94-4.53,3.94H47v3.36h-2.46V29.51z
			 M48.95,35.16c1.23,0,1.95-0.74,1.95-1.7v-0.03c0-1.1-0.77-1.7-2-1.7H47v3.43H48.95z"/>
		<path fill="#FFFFFF" d="M67.38,29.43h2.27l4.8,11.28h-2.58l-1.02-2.51h-4.74l-1.02,2.51h-2.51L67.38,29.43z M69.97,36.03
			l-1.49-3.63L67,36.03H69.97z"/>
		<polygon fill="#FFFFFF" points="85.62,29.51 88.08,29.51 88.08,38.47 93.67,38.47 93.67,40.72 85.62,40.72 		"/>
		<polygon fill="#FFFFFF" points="104.96,29.51 107.62,29.51 110.57,34.25 113.51,29.51 116.17,29.51 116.17,40.72 113.72,40.72
			113.72,33.4 110.57,38.19 110.5,38.19 107.38,33.45 107.38,40.72 104.96,40.72 		"/>
		<polygon fill="#FFFFFF" points="128.29,29.51 136.74,29.51 136.74,31.7 130.74,31.7 130.74,33.98 136.02,33.98 136.02,36.17
			130.74,36.17 130.74,38.52 136.82,38.52 136.82,40.72 128.29,40.72 		"/>
		<polygon fill="#FFFFFF" points="151.06,31.78 147.65,31.78 147.65,29.51 156.94,29.51 156.94,31.78 153.53,31.78 153.53,40.72
			151.06,40.72 		"/>
		<polygon fill="#FFFFFF" points="170.87,31.78 167.46,31.78 167.46,29.51 176.74,29.51 176.74,31.78 173.33,31.78 173.33,40.72
			170.87,40.72 		"/>
		<path fill="#FFFFFF" d="M187.09,35.15v-0.03c0-3.19,2.51-5.79,5.97-5.79c3.46,0,5.94,2.58,5.94,5.76v0.03
			c0,3.19-2.51,5.79-5.97,5.79C189.57,40.91,187.09,38.33,187.09,35.15 M196.42,35.15v-0.03c0-1.92-1.41-3.52-3.39-3.52
			s-3.36,1.57-3.36,3.49v0.03c0,1.92,1.41,3.52,3.39,3.52C195.05,38.63,196.42,37.07,196.42,35.15"/>
		<path fill="#FFFFFF" d="M76.87,54.51h5.2c1.28,0,2.29,0.35,2.93,0.99c0.51,0.51,0.77,1.14,0.77,1.91v0.03
			c0,1.26-0.67,1.97-1.47,2.42c1.3,0.5,2.1,1.25,2.1,2.75v0.03c0,2.05-1.66,3.07-4.19,3.07h-5.33V54.51z M81.54,59.04
			c1.09,0,1.78-0.35,1.78-1.18v-0.03c0-0.74-0.58-1.15-1.62-1.15h-2.43v2.37H81.54z M82.2,63.55c1.09,0,1.74-0.38,1.74-1.22v-0.03
			c0-0.75-0.56-1.22-1.82-1.22h-2.85v2.47H82.2z"/>
		<polygon fill="#FFFFFF" points="97.86,54.51 100.33,54.51 100.33,63.47 105.91,63.47 105.91,65.72 97.86,65.72 		"/>
		<path fill="#FFFFFF" d="M116.71,60.91v-6.4h2.46v6.34c0,1.82,0.91,2.77,2.42,2.77c1.5,0,2.42-0.91,2.42-2.69v-6.42h2.47v6.32
			c0,3.39-1.91,5.06-4.91,5.06C118.55,65.89,116.71,64.21,116.71,60.91"/>
		<polygon fill="#FFFFFF" points="138.42,54.51 146.95,54.51 146.95,56.75 140.89,56.75 140.89,59.14 146.23,59.14 146.23,61.38
			140.89,61.38 140.89,65.72 138.42,65.72 		"/>
		<polygon fill="#FFFFFF" points="158.36,54.51 166.89,54.51 166.89,56.75 160.82,56.75 160.82,59.14 166.17,59.14 166.17,61.38
			160.82,61.38 160.82,65.72 158.36,65.72 		"/>
	</g>
	<g id="daufuskie-marina">
		<g id="text_1_">
			<path fill="#FFFFFF" d="M432.59,142.06h5.73c4.62,0,7.81,3.17,7.81,7.31v0.04c0,4.14-3.19,7.35-7.81,7.35h-5.73V142.06z
				 M438.33,153.84c2.65,0,4.43-1.79,4.43-4.39v-0.04c0-2.6-1.79-4.43-4.43-4.43h-2.5v8.86H438.33z"/>
			<path fill="#FFFFFF" d="M465.39,141.95h2.98l6.3,14.8h-3.38l-1.34-3.3h-6.21l-1.34,3.3h-3.3L465.39,141.95z M468.79,150.6
				l-1.95-4.77l-1.95,4.77H468.79z"/>
			<path fill="#FFFFFF" d="M488.58,150.45v-8.4h3.23v8.31c0,2.39,1.2,3.63,3.17,3.63c1.97,0,3.17-1.2,3.17-3.53v-8.42h3.23v8.29
				c0,4.45-2.5,6.63-6.45,6.63C490.99,156.98,488.58,154.78,488.58,150.45"/>
			<polygon fill="#FFFFFF" points="517.08,142.06 528.27,142.06 528.27,145 520.31,145 520.31,148.12 527.32,148.12 527.32,151.06
				520.31,151.06 520.31,156.75 517.08,156.75 			"/>
			<path fill="#FFFFFF" d="M543.01,150.45v-8.4h3.23v8.31c0,2.39,1.2,3.63,3.17,3.63s3.17-1.2,3.17-3.53v-8.42h3.23v8.29
				c0,4.45-2.5,6.63-6.45,6.63S543.01,154.78,543.01,150.45"/>
			<path fill="#FFFFFF" d="M570.5,154.61l1.91-2.29c1.32,1.09,2.71,1.78,4.39,1.78c1.32,0,2.12-0.52,2.12-1.39v-0.04
				c0-0.82-0.5-1.24-2.96-1.87c-2.96-0.76-4.87-1.57-4.87-4.49v-0.04c0-2.67,2.14-4.43,5.14-4.43c2.14,0,3.97,0.67,5.46,1.87
				l-1.68,2.44c-1.3-0.9-2.58-1.45-3.82-1.45c-1.24,0-1.89,0.57-1.89,1.28v0.04c0,0.96,0.63,1.28,3.17,1.93
				c2.98,0.78,4.66,1.85,4.66,4.41v0.04c0,2.92-2.23,4.56-5.4,4.56C574.51,156.96,572.26,156.19,570.5,154.61"/>
			<polygon fill="#FFFFFF" points="597.34,142.06 600.57,142.06 600.57,148.48 606.53,142.06 610.44,142.06 604.46,148.29
				610.71,156.75 606.83,156.75 602.27,150.5 600.57,152.26 600.57,156.75 597.34,156.75 			"/>
			<rect x="625.2" y="142.06" fill="#FFFFFF" width="3.23" height="14.7"/>
			<polygon fill="#FFFFFF" points="644.5,142.06 655.59,142.06 655.59,144.93 647.72,144.93 647.72,147.91 654.65,147.91
				654.65,150.79 647.72,150.79 647.72,153.88 655.69,153.88 655.69,156.75 644.5,156.75 			"/>
			<polygon fill="#FFFFFF" points="432.59,167.26 436.08,167.26 439.94,173.47 443.8,167.26 447.29,167.26 447.29,181.95
				444.08,181.95 444.08,172.36 439.94,178.64 439.86,178.64 435.76,172.42 435.76,181.95 432.59,181.95 			"/>
			<path fill="#FFFFFF" d="M468.25,167.15h2.98l6.3,14.8h-3.38l-1.34-3.3h-6.21l-1.34,3.3h-3.3L468.25,167.15z M471.65,175.8
				l-1.95-4.77l-1.95,4.77H471.65z"/>
			<path fill="#FFFFFF" d="M492.19,167.26h6.72c1.87,0,3.32,0.52,4.28,1.49c0.82,0.82,1.26,1.97,1.26,3.36v0.04
				c0,2.37-1.28,3.86-3.15,4.56l3.59,5.25h-3.78l-3.15-4.7h-2.54v4.7h-3.23V167.26z M498.7,174.4c1.58,0,2.48-0.84,2.48-2.08v-0.04
				c0-1.39-0.97-2.1-2.54-2.1h-3.21v4.22H498.7z"/>
			<rect x="519.91" y="167.26" fill="#FFFFFF" width="3.23" height="14.7"/>
			<polygon fill="#FFFFFF" points="539.21,167.26 542.19,167.26 549.08,176.31 549.08,167.26 552.27,167.26 552.27,181.95
				549.52,181.95 542.4,172.61 542.4,181.95 539.21,181.95 			"/>
			<path fill="#FFFFFF" d="M573.23,167.15h2.98l6.3,14.8h-3.38l-1.34-3.3h-6.22l-1.34,3.3h-3.3L573.23,167.15z M576.63,175.8
				l-1.95-4.77l-1.95,4.77H576.63z"/>
		</g>
		<path id="circle_1_" fill="#FFFFFF" d="M414.92,147.75c0-4.14-3.36-7.5-7.5-7.5c-4.14,0-7.5,3.36-7.5,7.5c0,4.14,3.36,7.5,7.5,7.5
			C411.56,155.25,414.92,151.9,414.92,147.75"/>
	</g>
	<g id="palmetto-bay-marina">
		<g id="text_2_">
			<path fill="#FFFFFF" d="M590.26,33.02h6c3.51,0,5.63,2.08,5.63,5.08v0.04c0,3.4-2.65,5.17-5.94,5.17h-2.46v4.41h-3.23V33.02z
				 M596.06,40.43c1.62,0,2.56-0.97,2.56-2.23v-0.04c0-1.45-1.01-2.23-2.62-2.23h-2.5v4.49H596.06z"/>
			<path fill="#FFFFFF" d="M620.25,32.91h2.98l6.3,14.8h-3.38l-1.34-3.3h-6.22l-1.34,3.3h-3.3L620.25,32.91z M623.65,41.56
				l-1.95-4.77l-1.95,4.77H623.65z"/>
			<polygon fill="#FFFFFF" points="644.19,33.02 647.43,33.02 647.43,44.78 654.75,44.78 654.75,47.72 644.19,47.72 			"/>
			<polygon fill="#FFFFFF" points="669.58,33.02 673.07,33.02 676.93,39.23 680.79,33.02 684.28,33.02 684.28,47.72 681.07,47.72
				681.07,38.12 676.93,44.4 676.85,44.4 672.75,38.18 672.75,47.72 669.58,47.72 			"/>
			<polygon fill="#FFFFFF" points="700.2,33.02 711.29,33.02 711.29,35.9 703.41,35.9 703.41,38.88 710.34,38.88 710.34,41.75
				703.41,41.75 703.41,44.84 711.39,44.84 711.39,47.72 700.2,47.72 			"/>
			<polygon fill="#FFFFFF" points="730.08,36 725.61,36 725.61,33.02 737.79,33.02 737.79,36 733.32,36 733.32,47.72 730.08,47.72
							"/>
			<polygon fill="#FFFFFF" points="756.08,36 751.61,36 751.61,33.02 763.78,33.02 763.78,36 759.31,36 759.31,47.72 756.08,47.72
							"/>
			<path fill="#FFFFFF" d="M777.37,40.41v-0.04c0-4.18,3.3-7.6,7.83-7.6s7.79,3.38,7.79,7.56v0.04c0,4.18-3.3,7.6-7.83,7.6
				S777.37,44.59,777.37,40.41 M789.61,40.41v-0.04c0-2.52-1.85-4.62-4.45-4.62s-4.41,2.06-4.41,4.58v0.04
				c0,2.52,1.85,4.62,4.45,4.62S789.61,42.93,789.61,40.41"/>
			<path fill="#FFFFFF" d="M826.95,33.02h6.82c1.68,0,3,0.46,3.84,1.3c0.67,0.67,1.01,1.49,1.01,2.5v0.04
				c0,1.66-0.88,2.58-1.93,3.17c1.7,0.65,2.75,1.64,2.75,3.61v0.04c0,2.69-2.18,4.03-5.5,4.03h-6.99V33.02z M833.08,38.96
				c1.43,0,2.33-0.46,2.33-1.55v-0.04c0-0.96-0.76-1.51-2.12-1.51h-3.19v3.11H833.08z M833.95,44.88c1.43,0,2.29-0.5,2.29-1.6v-0.04
				c0-0.99-0.74-1.59-2.39-1.59h-3.74v3.23H833.95z"/>
			<path fill="#FFFFFF" d="M859.54,32.91h2.98l6.3,14.8h-3.38l-1.34-3.3h-6.22l-1.34,3.3h-3.3L859.54,32.91z M862.95,41.56
				l-1.95-4.77l-1.95,4.77H862.95z"/>
			<polygon fill="#FFFFFF" points="885.31,41.92 879.66,33.02 883.44,33.02 886.95,38.92 890.52,33.02 894.19,33.02 888.55,41.86
				888.55,47.72 885.31,47.72 			"/>
			<polygon fill="#FFFFFF" points="744.03,58.22 747.51,58.22 751.37,64.43 755.24,58.22 758.72,58.22 758.72,72.92 755.51,72.92
				755.51,63.32 751.37,69.6 751.29,69.6 747.2,63.38 747.2,72.92 744.03,72.92 			"/>
			<path fill="#FFFFFF" d="M779.68,58.11h2.98l6.3,14.8h-3.38l-1.34-3.3h-6.22l-1.34,3.3h-3.3L779.68,58.11z M783.08,66.76
				L781.13,62l-1.95,4.77H783.08z"/>
			<path fill="#FFFFFF" d="M803.62,58.22h6.72c1.87,0,3.32,0.52,4.28,1.49c0.82,0.82,1.26,1.97,1.26,3.36v0.04
				c0,2.37-1.28,3.86-3.15,4.56l3.59,5.25h-3.78l-3.15-4.7h-2.54v4.7h-3.23V58.22z M810.13,65.36c1.57,0,2.48-0.84,2.48-2.08v-0.04
				c0-1.39-0.97-2.1-2.54-2.1h-3.21v4.22H810.13z"/>
			<rect x="831.34" y="58.22" fill="#FFFFFF" width="3.23" height="14.7"/>
			<polygon fill="#FFFFFF" points="850.64,58.22 853.62,58.22 860.51,67.27 860.51,58.22 863.7,58.22 863.7,72.92 860.95,72.92
				853.83,63.57 853.83,72.92 850.64,72.92 			"/>
			<path fill="#FFFFFF" d="M884.66,58.11h2.98l6.3,14.8h-3.38l-1.34-3.3H883l-1.34,3.3h-3.3L884.66,58.11z M888.06,66.76L886.11,62
				l-1.95,4.77H888.06z"/>
		</g>
		<path id="circle_2_" fill="#FFFFFF" d="M929.7,40.72c0-4.14-3.36-7.5-7.5-7.5s-7.5,3.36-7.5,7.5s3.36,7.5,7.5,7.5
			S929.7,44.86,929.7,40.72"/>
	</g>
	<g id="melrose-resort">
		<a href="#">
			<g id="text">
				<polygon fill="#FFFFFF" points="374.11,392.3 377.59,392.3 381.45,398.51 385.32,392.3 388.8,392.3 388.8,406.99 385.59,406.99
					385.59,397.4 381.45,403.68 381.37,403.68 377.28,397.46 377.28,406.99 374.11,406.99 			"/>
				<polygon fill="#FFFFFF" points="404.72,392.3 415.81,392.3 415.81,395.17 407.94,395.17 407.94,398.15 414.87,398.15
					414.87,401.03 407.94,401.03 407.94,404.12 415.91,404.12 415.91,406.99 404.72,406.99 			"/>
				<polygon fill="#FFFFFF" points="431.18,392.3 434.42,392.3 434.42,404.06 441.74,404.06 441.74,406.99 431.18,406.99 			"/>
				<path fill="#FFFFFF" d="M456.57,392.3h6.72c1.87,0,3.32,0.53,4.28,1.49c0.82,0.82,1.26,1.97,1.26,3.36v0.04
					c0,2.37-1.28,3.86-3.15,4.56l3.59,5.25h-3.78l-3.15-4.7h-2.54v4.7h-3.23V392.3z M463.08,399.44c1.58,0,2.48-0.84,2.48-2.08v-0.04
					c0-1.38-0.97-2.1-2.54-2.1h-3.21v4.22H463.08z"/>
				<path fill="#FFFFFF" d="M483.49,399.69v-0.04c0-4.18,3.3-7.6,7.83-7.6c4.54,0,7.79,3.38,7.79,7.56v0.04c0,4.18-3.3,7.6-7.83,7.6
					C486.75,407.25,483.49,403.87,483.49,399.69 M495.73,399.69v-0.04c0-2.52-1.85-4.62-4.45-4.62c-2.6,0-4.41,2.06-4.41,4.58v0.04
					c0,2.52,1.85,4.62,4.45,4.62C493.93,404.26,495.73,402.21,495.73,399.69"/>
				<path fill="#FFFFFF" d="M513.27,404.85l1.91-2.29c1.32,1.09,2.71,1.78,4.39,1.78c1.32,0,2.12-0.52,2.12-1.39v-0.04
					c0-0.82-0.5-1.24-2.96-1.87c-2.96-0.76-4.87-1.58-4.87-4.49v-0.04c0-2.67,2.14-4.43,5.14-4.43c2.14,0,3.97,0.67,5.46,1.87
					l-1.68,2.43c-1.3-0.9-2.58-1.45-3.82-1.45c-1.24,0-1.89,0.57-1.89,1.28v0.04c0,0.96,0.63,1.28,3.17,1.93
					c2.98,0.78,4.66,1.85,4.66,4.41v0.04c0,2.92-2.23,4.56-5.4,4.56C517.28,407.2,515.04,406.43,513.27,404.85"/>
				<polygon fill="#FFFFFF" points="540.11,392.3 551.2,392.3 551.2,395.17 543.32,395.17 543.32,398.15 550.25,398.15
					550.25,401.03 543.32,401.03 543.32,404.12 551.3,404.12 551.3,406.99 540.11,406.99 			"/>
				<path fill="#FFFFFF" d="M374.11,417.5h6.72c1.87,0,3.32,0.53,4.28,1.49c0.82,0.82,1.26,1.97,1.26,3.36v0.04
					c0,2.37-1.28,3.86-3.15,4.56l3.59,5.25h-3.78l-3.15-4.7h-2.54v4.7h-3.23V417.5z M380.61,424.64c1.58,0,2.48-0.84,2.48-2.08v-0.04
					c0-1.39-0.97-2.1-2.54-2.1h-3.21v4.22H380.61z"/>
				<polygon fill="#FFFFFF" points="401.68,417.5 412.76,417.5 412.76,420.37 404.89,420.37 404.89,423.35 411.82,423.35
					411.82,426.23 404.89,426.23 404.89,429.32 412.87,429.32 412.87,432.19 401.68,432.19 			"/>
				<path fill="#FFFFFF" d="M427.13,430.05l1.91-2.29c1.32,1.09,2.71,1.79,4.39,1.79c1.32,0,2.12-0.52,2.12-1.39v-0.04
					c0-0.82-0.5-1.24-2.96-1.87c-2.96-0.76-4.87-1.57-4.87-4.49v-0.04c0-2.67,2.14-4.43,5.14-4.43c2.14,0,3.97,0.67,5.46,1.87
					l-1.68,2.43c-1.3-0.9-2.58-1.45-3.82-1.45c-1.24,0-1.89,0.57-1.89,1.28v0.04c0,0.97,0.63,1.28,3.17,1.93
					c2.98,0.78,4.66,1.85,4.66,4.41v0.04c0,2.92-2.23,4.56-5.4,4.56C431.14,432.4,428.9,431.63,427.13,430.05"/>
				<path fill="#FFFFFF" d="M453.32,424.89v-0.04c0-4.18,3.3-7.6,7.83-7.6c4.54,0,7.79,3.38,7.79,7.56v0.04c0,4.18-3.3,7.6-7.83,7.6
					C456.57,432.45,453.32,429.07,453.32,424.89 M465.56,424.89v-0.04c0-2.52-1.85-4.62-4.45-4.62c-2.6,0-4.41,2.06-4.41,4.58v0.04
					c0,2.52,1.85,4.62,4.45,4.62C463.75,429.46,465.56,427.41,465.56,424.89"/>
				<path fill="#FFFFFF" d="M484.21,417.5h6.72c1.87,0,3.32,0.53,4.28,1.49c0.82,0.82,1.26,1.97,1.26,3.36v0.04
					c0,2.37-1.28,3.86-3.15,4.56l3.59,5.25h-3.78l-3.15-4.7h-2.54v4.7h-3.23V417.5z M490.72,424.64c1.57,0,2.48-0.84,2.48-2.08v-0.04
					c0-1.39-0.97-2.1-2.54-2.1h-3.21v4.22H490.72z"/>
				<polygon fill="#FFFFFF" points="515.2,420.48 510.73,420.48 510.73,417.5 522.91,417.5 522.91,420.48 518.44,420.48
					518.44,432.19 515.2,432.19 			"/>
			</g></a>
		<path id="circle" fill="#FFFFFF" d="M358.07,398.55c0-4.14-3.36-7.5-7.5-7.5s-7.5,3.36-7.5,7.5s3.36,7.5,7.5,7.5
			S358.07,402.69,358.07,398.55"/>
	</g>
</g>
</svg>
