<?xml version="1.0" encoding="utf-8"?>
<!-- Generator: Adobe Illustrator 16.0.4, SVG Export Plug-In . SVG Version: 6.00 Build 0)  -->
<!DOCTYPE svg PUBLIC "-//W3C//DTD SVG 1.1//EN" "http://www.w3.org/Graphics/SVG/1.1/DTD/svg11.dtd">
<svg version="1.1" id="Layer_1" xmlns="http://www.w3.org/2000/svg" xmlns:xlink="http://www.w3.org/1999/xlink" x="0px" y="0px"
	 width="1091.61px" height="587.61px" viewBox="0 0 1091.61 587.61" enable-background="new 0 0 1091.61 587.61"
	 xml:space="preserve">
<image overflow="visible" width="4700" height="2530" id="background-image" xlink:href="//melrose.sanchezstudio.co/maps/daufuskie-island.jpg"  transform="matrix(0.2323 0 0 0.2323 0 0)">
</image>
<g id="landmarks-daufuskie">
	<g id="atlantic-ocean">
		<path fill="#FFFFFF" d="M614.41,494.88h0.44l7.75,16.21h-0.55l-2.3-4.83h-10.25l-2.3,4.83h-0.53L614.41,494.88z M619.51,505.8
			l-4.9-10.26l-4.9,10.26H619.51z"/>
		<polygon fill="#FFFFFF" points="641.39,495.46 635.57,495.46 635.57,495 647.71,495 647.71,495.46 641.89,495.46 641.89,511.09
			641.39,511.09 		"/>
		<polygon fill="#FFFFFF" points="664.29,495 664.8,495 664.8,510.63 674.69,510.63 674.69,511.09 664.29,511.09 		"/>
		<path fill="#FFFFFF" d="M697.51,494.88h0.44l7.75,16.21h-0.55l-2.3-4.83h-10.25l-2.3,4.83h-0.53L697.51,494.88z M702.61,505.8
			l-4.9-10.26l-4.9,10.26H702.61z"/>
		<polygon fill="#FFFFFF" points="722.51,495 722.94,495 735.18,510.26 735.18,495 735.66,495 735.66,511.09 735.22,511.09
			722.99,495.82 722.99,511.09 722.51,511.09 		"/>
		<polygon fill="#FFFFFF" points="758.06,495.46 752.25,495.46 752.25,495 764.39,495 764.39,495.46 758.57,495.46 758.57,511.09
			758.06,511.09 		"/>
		<rect x="781.13" y="495" fill="#FFFFFF" width="0.51" height="16.1"/>
		<path fill="#FFFFFF" d="M799.44,503.09v-0.05c0-4.53,3.31-8.32,7.91-8.32c3.04,0,4.62,1.13,6.12,2.55l-0.34,0.35
			c-1.29-1.24-2.92-2.44-5.79-2.44c-4.28,0-7.38,3.63-7.38,7.84v0.05c0,4.25,3.15,7.84,7.38,7.84c2.62,0,4.58-1.24,5.86-2.62
			l0.37,0.34c-1.4,1.47-3.43,2.74-6.25,2.74C802.78,511.37,799.44,507.64,799.44,503.09"/>
		<path fill="#FFFFFF" d="M849.72,503.07v-0.05c0-4.39,3.13-8.3,8-8.3s8,3.91,8,8.3v0.05c0,4.39-3.13,8.3-8,8.3
			S849.72,507.46,849.72,503.07 M865.22,503.09v-0.05c0-4.12-3.04-7.86-7.52-7.86c-4.51,0-7.47,3.68-7.47,7.82v0.05
			c0,4.12,3.04,7.86,7.52,7.86C862.25,510.91,865.22,507.23,865.22,503.09"/>
		<path fill="#FFFFFF" d="M882.66,503.09v-0.05c0-4.53,3.31-8.32,7.91-8.32c3.04,0,4.62,1.13,6.12,2.55l-0.34,0.35
			c-1.29-1.24-2.92-2.44-5.79-2.44c-4.28,0-7.38,3.63-7.38,7.84v0.05c0,4.25,3.15,7.84,7.38,7.84c2.62,0,4.58-1.24,5.86-2.62
			l0.37,0.34c-1.4,1.47-3.43,2.74-6.25,2.74C885.99,511.37,882.66,507.64,882.66,503.09"/>
		<polygon fill="#FFFFFF" points="913.64,495 924.88,495 924.88,495.46 914.14,495.46 914.14,502.77 923.89,502.77 923.89,503.23
			914.14,503.23 914.14,510.63 925,510.63 925,511.09 913.64,511.09 		"/>
		<path fill="#FFFFFF" d="M948.62,494.88h0.44l7.75,16.21h-0.55l-2.3-4.83H943.7l-2.3,4.83h-0.53L948.62,494.88z M953.72,505.8
			l-4.9-10.26l-4.9,10.26H953.72z"/>
		<polygon fill="#FFFFFF" points="973.62,495 974.06,495 986.29,510.26 986.29,495 986.77,495 986.77,511.09 986.34,511.09
			974.1,495.82 974.1,511.09 973.62,511.09 		"/>
	</g>
	<g id="hilton-head">
		<polygon fill="#FFFFFF" points="745.18,247.69 747.64,247.69 747.64,252.12 752.19,252.12 752.19,247.69 754.65,247.69
			754.65,258.89 752.19,258.89 752.19,254.39 747.64,254.39 747.64,258.89 745.18,258.89 		"/>
		<rect x="766.89" y="247.69" fill="#FFFFFF" width="2.47" height="11.2"/>
		<polygon fill="#FFFFFF" points="781.59,247.69 784.06,247.69 784.06,256.65 789.64,256.65 789.64,258.89 781.59,258.89 		"/>
		<polygon fill="#FFFFFF" points="801.95,249.96 798.54,249.96 798.54,247.69 807.82,247.69 807.82,249.96 804.41,249.96
			804.41,258.89 801.95,258.89 		"/>
		<path fill="#FFFFFF" d="M818.17,253.32v-0.03c0-3.18,2.51-5.79,5.97-5.79c3.46,0,5.94,2.58,5.94,5.76v0.03
			c0,3.19-2.51,5.8-5.97,5.8C820.65,259.08,818.17,256.51,818.17,253.32 M827.5,253.32v-0.03c0-1.92-1.41-3.52-3.39-3.52
			c-1.98,0-3.36,1.57-3.36,3.49v0.03c0,1.92,1.41,3.52,3.39,3.52S827.5,255.24,827.5,253.32"/>
		<polygon fill="#FFFFFF" points="841.7,247.69 843.98,247.69 849.23,254.58 849.23,247.69 851.66,247.69 851.66,258.89
			849.56,258.89 844.14,251.77 844.14,258.89 841.7,258.89 		"/>
		<polygon fill="#FFFFFF" points="878.02,247.69 880.49,247.69 880.49,252.12 885.04,252.12 885.04,247.69 887.5,247.69
			887.5,258.89 885.04,258.89 885.04,254.39 880.49,254.39 880.49,258.89 878.02,258.89 		"/>
		<polygon fill="#FFFFFF" points="899.62,247.69 908.07,247.69 908.07,249.88 902.07,249.88 902.07,252.15 907.35,252.15
			907.35,254.35 902.07,254.35 902.07,256.7 908.15,256.7 908.15,258.89 899.62,258.89 		"/>
		<path fill="#FFFFFF" d="M923.62,247.61h2.27l4.8,11.28h-2.58l-1.02-2.51h-4.74l-1.03,2.51h-2.51L923.62,247.61z M926.22,254.2
			l-1.49-3.63l-1.49,3.63H926.22z"/>
		<path fill="#FFFFFF" d="M941.86,247.69h4.37c3.52,0,5.95,2.42,5.95,5.57v0.03c0,3.15-2.43,5.6-5.95,5.6h-4.37V247.69z
			 M946.23,256.67c2.02,0,3.38-1.36,3.38-3.35v-0.03c0-1.98-1.36-3.38-3.38-3.38h-1.9v6.75H946.23z"/>
		<rect x="794.63" y="272.69" fill="#FFFFFF" width="2.46" height="11.2"/>
		<path fill="#FFFFFF" d="M808.57,282.26l1.46-1.74c1.01,0.83,2.06,1.36,3.34,1.36c1.01,0,1.62-0.4,1.62-1.06v-0.03
			c0-0.62-0.39-0.94-2.26-1.42c-2.26-0.58-3.71-1.2-3.71-3.42v-0.03c0-2.03,1.63-3.38,3.92-3.38c1.63,0,3.03,0.51,4.16,1.42
			l-1.28,1.86c-0.99-0.69-1.97-1.1-2.91-1.1c-0.94,0-1.44,0.43-1.44,0.98v0.03c0,0.74,0.48,0.98,2.42,1.47
			c2.27,0.59,3.55,1.41,3.55,3.36v0.03c0,2.23-1.7,3.47-4.11,3.47C811.63,284.05,809.91,283.46,808.57,282.26"/>
		<polygon fill="#FFFFFF" points="829.02,272.69 831.48,272.69 831.48,281.65 837.07,281.65 837.07,283.89 829.02,283.89 		"/>
		<path fill="#FFFFFF" d="M852.2,272.61h2.27l4.8,11.28h-2.58l-1.02-2.51h-4.74l-1.03,2.51h-2.51L852.2,272.61z M854.79,279.2
			l-1.49-3.63l-1.49,3.63H854.79z"/>
		<polygon fill="#FFFFFF" points="870.44,272.69 872.71,272.69 877.96,279.58 877.96,272.69 880.4,272.69 880.4,283.89
			878.3,283.89 872.87,276.77 872.87,283.89 870.44,283.89 		"/>
		<path fill="#FFFFFF" d="M892.52,272.69h4.37c3.52,0,5.95,2.42,5.95,5.57v0.03c0,3.15-2.43,5.6-5.95,5.6h-4.37V272.69z
			 M896.89,281.67c2.02,0,3.38-1.36,3.38-3.35v-0.03c0-1.98-1.36-3.38-3.38-3.38h-1.9v6.75H896.89z"/>
	</g>
	<g id="palmetto-bluff">
		<path fill="#FFFFFF" d="M44.15,30.12h4.58c2.67,0,4.29,1.58,4.29,3.87v0.03c0,2.59-2.02,3.94-4.53,3.94h-1.87v3.36h-2.46V30.12z
			 M48.56,35.77c1.23,0,1.95-0.74,1.95-1.7v-0.03c0-1.1-0.77-1.7-2-1.7h-1.9v3.42H48.56z"/>
		<path fill="#FFFFFF" d="M66.99,30.04h2.27l4.8,11.28h-2.58l-1.02-2.51h-4.74l-1.02,2.51h-2.51L66.99,30.04z M69.59,36.64
			l-1.49-3.63l-1.49,3.63H69.59z"/>
		<polygon fill="#FFFFFF" points="85.23,30.12 87.7,30.12 87.7,39.09 93.28,39.09 93.28,41.33 85.23,41.33 		"/>
		<polygon fill="#FFFFFF" points="104.58,30.12 107.23,30.12 110.18,34.86 113.12,30.12 115.78,30.12 115.78,41.33 113.33,41.33
			113.33,34.01 110.18,38.8 110.11,38.8 106.99,34.06 106.99,41.33 104.58,41.33 		"/>
		<polygon fill="#FFFFFF" points="127.9,30.12 136.36,30.12 136.36,32.32 130.35,32.32 130.35,34.59 135.63,34.59 135.63,36.78
			130.35,36.78 130.35,39.14 136.44,39.14 136.44,41.33 127.9,41.33 		"/>
		<polygon fill="#FFFFFF" points="150.67,32.4 147.26,32.4 147.26,30.12 156.55,30.12 156.55,32.4 153.14,32.4 153.14,41.33
			150.67,41.33 		"/>
		<polygon fill="#FFFFFF" points="170.48,32.4 167.07,32.4 167.07,30.12 176.36,30.12 176.36,32.4 172.95,32.4 172.95,41.33
			170.48,41.33 		"/>
		<path fill="#FFFFFF" d="M186.7,35.76v-0.03c0-3.18,2.51-5.79,5.97-5.79c3.46,0,5.94,2.58,5.94,5.76v0.03c0,3.19-2.51,5.8-5.97,5.8
			C189.18,41.52,186.7,38.94,186.7,35.76 M196.04,35.76v-0.03c0-1.92-1.41-3.52-3.39-3.52c-1.98,0-3.36,1.57-3.36,3.49v0.03
			c0,1.92,1.41,3.52,3.39,3.52S196.04,37.68,196.04,35.76"/>
		<path fill="#FFFFFF" d="M76.48,55.12h5.2c1.28,0,2.29,0.35,2.93,0.99c0.51,0.51,0.77,1.14,0.77,1.9v0.03
			c0,1.26-0.67,1.97-1.47,2.42c1.3,0.5,2.1,1.25,2.1,2.75v0.03c0,2.05-1.66,3.07-4.19,3.07h-5.33V55.12z M81.16,59.65
			c1.09,0,1.78-0.35,1.78-1.18v-0.03c0-0.74-0.58-1.15-1.62-1.15h-2.43v2.37H81.16z M81.81,64.17c1.09,0,1.74-0.38,1.74-1.22v-0.03
			c0-0.75-0.56-1.22-1.82-1.22h-2.85v2.46H81.81z"/>
		<polygon fill="#FFFFFF" points="97.47,55.12 99.94,55.12 99.94,64.09 105.53,64.09 105.53,66.33 97.47,66.33 		"/>
		<path fill="#FFFFFF" d="M116.32,61.53v-6.4h2.47v6.34c0,1.83,0.91,2.77,2.42,2.77c1.5,0,2.42-0.91,2.42-2.69v-6.42h2.46v6.32
			c0,3.39-1.91,5.06-4.91,5.06C118.16,66.5,116.32,64.82,116.32,61.53"/>
		<polygon fill="#FFFFFF" points="138.03,55.12 146.56,55.12 146.56,57.36 140.5,57.36 140.5,59.75 145.84,59.75 145.84,61.99
			140.5,61.99 140.5,66.33 138.03,66.33 		"/>
		<polygon fill="#FFFFFF" points="157.97,55.12 166.5,55.12 166.5,57.36 160.43,57.36 160.43,59.75 165.78,59.75 165.78,61.99
			160.43,61.99 160.43,66.33 157.97,66.33 		"/>
	</g>
	<g id="daufuskie-island">
		<path fill="#FFFFFF" d="M191.88,230.97h4.37c3.52,0,5.96,2.42,5.96,5.57v0.03c0,3.15-2.43,5.6-5.96,5.6h-4.37V230.97z
			 M196.25,239.95c2.02,0,3.38-1.36,3.38-3.35v-0.03c0-1.98-1.36-3.38-3.38-3.38h-1.9v6.75H196.25z"/>
		<path fill="#FFFFFF" d="M216.87,230.89h2.27l4.8,11.28h-2.58l-1.02-2.51h-4.74l-1.02,2.51h-2.51L216.87,230.89z M219.46,237.48
			l-1.49-3.63l-1.49,3.63H219.46z"/>
		<path fill="#FFFFFF" d="M234.53,237.37v-6.4H237v6.34c0,1.82,0.91,2.77,2.42,2.77c1.5,0,2.42-0.91,2.42-2.69v-6.42h2.46v6.32
			c0,3.39-1.91,5.06-4.91,5.06C236.37,242.35,234.53,240.67,234.53,237.37"/>
		<polygon fill="#FFFFFF" points="256.25,230.97 264.78,230.97 264.78,233.21 258.71,233.21 258.71,235.59 264.06,235.59
			264.06,237.83 258.71,237.83 258.71,242.17 256.25,242.17 		"/>
		<path fill="#FFFFFF" d="M276.01,237.37v-6.4h2.47v6.34c0,1.82,0.91,2.77,2.42,2.77c1.5,0,2.42-0.91,2.42-2.69v-6.42h2.46v6.32
			c0,3.39-1.91,5.06-4.91,5.06C277.85,242.35,276.01,240.67,276.01,237.37"/>
		<path fill="#FFFFFF" d="M296.95,240.54l1.46-1.74c1.01,0.83,2.06,1.36,3.35,1.36c1.01,0,1.62-0.4,1.62-1.06v-0.03
			c0-0.62-0.38-0.94-2.26-1.42c-2.26-0.58-3.71-1.2-3.71-3.42v-0.03c0-2.03,1.63-3.38,3.92-3.38c1.63,0,3.03,0.51,4.16,1.42
			l-1.28,1.86c-0.99-0.69-1.97-1.1-2.91-1.1c-0.94,0-1.44,0.43-1.44,0.98v0.03c0,0.74,0.48,0.98,2.42,1.47
			c2.27,0.59,3.55,1.41,3.55,3.36v0.03c0,2.23-1.7,3.47-4.11,3.47C300.01,242.33,298.29,241.74,296.95,240.54"/>
		<polygon fill="#FFFFFF" points="317.4,230.97 319.86,230.97 319.86,235.86 324.41,230.97 327.39,230.97 322.82,235.72
			327.59,242.17 324.63,242.17 321.16,237.4 319.86,238.75 319.86,242.17 317.4,242.17 		"/>
		<rect x="338.63" y="230.97" fill="#FFFFFF" width="2.47" height="11.2"/>
		<polygon fill="#FFFFFF" points="353.33,230.97 361.78,230.97 361.78,233.16 355.78,233.16 355.78,235.43 361.06,235.43
			361.06,237.63 355.78,237.63 355.78,239.98 361.86,239.98 361.86,242.17 353.33,242.17 		"/>
		<rect x="222.82" y="255.97" fill="#FFFFFF" width="2.47" height="11.2"/>
		<path fill="#FFFFFF" d="M236.76,265.54l1.46-1.74c1.01,0.83,2.06,1.36,3.35,1.36c1.01,0,1.62-0.4,1.62-1.06v-0.03
			c0-0.62-0.38-0.94-2.26-1.42c-2.26-0.58-3.71-1.2-3.71-3.42v-0.03c0-2.03,1.63-3.38,3.92-3.38c1.63,0,3.03,0.51,4.16,1.42
			l-1.28,1.86c-0.99-0.69-1.97-1.1-2.91-1.1c-0.94,0-1.44,0.43-1.44,0.98v0.03c0,0.74,0.48,0.98,2.42,1.47
			c2.27,0.59,3.55,1.41,3.55,3.36v0.03c0,2.23-1.7,3.47-4.11,3.47C239.82,267.33,238.1,266.74,236.76,265.54"/>
		<polygon fill="#FFFFFF" points="257.21,255.97 259.67,255.97 259.67,264.93 265.26,264.93 265.26,267.17 257.21,267.17 		"/>
		<path fill="#FFFFFF" d="M280.39,255.89h2.27l4.8,11.28h-2.58l-1.02-2.51h-4.74l-1.02,2.51h-2.51L280.39,255.89z M282.98,262.48
			l-1.49-3.63l-1.49,3.63H282.98z"/>
		<polygon fill="#FFFFFF" points="298.63,255.97 300.9,255.97 306.15,262.87 306.15,255.97 308.59,255.97 308.59,267.17
			306.49,267.17 301.06,260.05 301.06,267.17 298.63,267.17 		"/>
		<path fill="#FFFFFF" d="M320.71,255.97h4.37c3.52,0,5.96,2.42,5.96,5.57v0.03c0,3.15-2.43,5.6-5.96,5.6h-4.37V255.97z
			 M325.08,264.95c2.02,0,3.38-1.36,3.38-3.35v-0.03c0-1.98-1.36-3.38-3.38-3.38h-1.9v6.75H325.08z"/>
	</g>
	<g id="melrose-resort">
		<g id="hover" class="melrose-hover-green">
			<g>
				<path fill="#FFFFFF" d="M388.42,392.91v14.7h-3.21v-9.6l-4.14,6.28h-0.08l-4.09-6.21v9.53h-3.17v-14.7h3.48l3.86,6.21l3.86-6.21
					H388.42z M389.42,391.91h-1h-3.48h-0.56l-0.29,0.47l-3.01,4.85l-3.01-4.85l-0.29-0.47h-0.56h-3.48h-1v1v14.7v1h1h3.17h1v-1v-6.2
					l2.26,3.43l0.3,0.45h0.54h0.08h0.54l0.3-0.45l2.3-3.49v6.26v1h1h3.21h1v-1v-14.7V391.91z"/>
				<path fill="#FFFFFF" d="M415.42,392.91v2.88h-7.87v2.98h6.93v2.88h-6.93v3.09h7.98v2.88h-11.19v-14.7H415.42z M416.42,391.91h-1
					h-11.09h-1v1v14.7v1h1h11.19h1v-1v-2.88v-1h-1h-6.98v-1.09h5.93h1v-1v-2.88v-1h-1h-5.93v-0.98h6.87h1v-1v-2.88V391.91z"/>
				<path fill="#FFFFFF" d="M434.03,392.91v11.76h7.33v2.94H430.8v-14.7H434.03z M435.03,391.91h-1h-3.23h-1v1v14.7v1h1h10.56h1v-1
					v-2.94v-1h-1h-6.33v-10.76V391.91z"/>
				<path fill="#FFFFFF" d="M462.9,392.91c1.87,0,3.32,0.53,4.28,1.49c0.82,0.82,1.26,1.97,1.26,3.36v0.04
					c0,2.37-1.28,3.86-3.15,4.56l3.59,5.25h-3.78l-3.15-4.7h-2.54v4.7h-3.23v-14.7H462.9 M459.42,400.05h3.27
					c1.58,0,2.48-0.84,2.48-2.08v-0.04c0-1.38-0.97-2.1-2.54-2.1h-3.21V400.05 M462.9,391.91h-6.72h-1v1v14.7v1h1h3.23h1v-1v-3.7
					h1.01l2.85,4.26l0.3,0.44h0.53h3.78h1.9l-1.07-1.56l-2.94-4.29c1.71-1.04,2.67-2.79,2.67-4.95c0-1.69-0.54-3.09-1.55-4.11
					C466.73,392.53,465,391.91,462.9,391.91 M460.42,396.83h2.21c1.54,0,1.54,0.77,1.54,1.1c0,0.93-0.8,1.12-1.48,1.12h-2.27V396.83
					z"/>
				<path fill="#FFFFFF" d="M490.94,392.66c4.54,0,7.79,3.38,7.79,7.56v0.04c0,4.18-3.3,7.6-7.83,7.6c-4.53,0-7.79-3.38-7.79-7.56
					v-0.04C483.11,396.08,486.4,392.66,490.94,392.66 M490.94,404.88c2.6,0,4.41-2.06,4.41-4.58v-0.04c0-2.52-1.85-4.62-4.45-4.62
					s-4.41,2.06-4.41,4.58v0.04C486.49,402.78,488.33,404.88,490.94,404.88 M490.94,391.66c-4.95,0-8.83,3.78-8.83,8.6
					c0,4.92,3.78,8.6,8.79,8.6c4.95,0,8.83-3.78,8.83-8.6C499.73,395.34,495.95,391.66,490.94,391.66 M490.94,403.88
					c-1.97,0-3.45-1.56-3.45-3.62c0-2.12,1.43-3.62,3.41-3.62c1.97,0,3.45,1.56,3.45,3.62
					C494.35,402.37,492.91,403.88,490.94,403.88"/>
				<path fill="#FFFFFF" d="M518.62,392.7c2.14,0,3.97,0.67,5.46,1.87L522.4,397c-1.3-0.9-2.58-1.45-3.82-1.45
					c-1.24,0-1.89,0.57-1.89,1.28v0.04c0,0.96,0.63,1.28,3.17,1.93c2.98,0.78,4.66,1.85,4.66,4.41v0.04c0,2.92-2.22,4.56-5.4,4.56
					c-2.22,0-4.47-0.78-6.23-2.35l1.91-2.29c1.32,1.09,2.71,1.78,4.39,1.78c1.32,0,2.12-0.52,2.12-1.39v-0.04
					c0-0.82-0.5-1.24-2.96-1.87c-2.96-0.76-4.87-1.58-4.87-4.49v-0.04C513.47,394.46,515.61,392.7,518.62,392.7 M518.62,391.7
					c-3.62,0-6.14,2.23-6.14,5.43c0,3.76,2.66,4.75,5.62,5.5c1.77,0.45,2.13,0.72,2.2,0.81c0,0,0,0.03,0,0.08
					c0,0.29-0.56,0.43-1.12,0.43c-1.29,0-2.45-0.48-3.75-1.56l-0.77-0.63l-0.64,0.76l-1.91,2.29l-0.62,0.74l0.72,0.64
					c1.88,1.68,4.33,2.61,6.9,2.61c3.89,0,6.4-2.18,6.4-5.56c0-3.54-2.73-4.72-5.41-5.42c-0.55-0.14-2.21-0.57-2.41-0.84
					c0,0-0.01-0.04-0.01-0.12c0-0.14,0.27-0.32,0.89-0.32c0.94,0,2.04,0.43,3.25,1.27l0.82,0.57l0.57-0.83l1.68-2.44l0.53-0.77
					l-0.73-0.58C522.98,392.4,520.93,391.7,518.62,391.7"/>
				<path fill="#FFFFFF" d="M550.81,392.91v2.88h-7.87v2.98h6.93v2.88h-6.93v3.09h7.98v2.88h-11.19v-14.7H550.81z M551.81,391.91h-1
					h-11.09h-1v1v14.7v1h1h11.19h1v-1v-2.88v-1h-1h-6.98v-1.09h5.93h1v-1v-2.88v-1h-1h-5.93v-0.98h6.87h1v-1v-2.88V391.91z"/>
				<path fill="#FFFFFF" d="M380.44,418.11c1.87,0,3.32,0.52,4.28,1.49c0.82,0.82,1.26,1.97,1.26,3.36V423
					c0,2.37-1.28,3.86-3.15,4.56l3.59,5.25h-3.78l-3.15-4.7h-2.54v4.7h-3.23v-14.7H380.44 M376.95,425.25h3.27
					c1.58,0,2.48-0.84,2.48-2.08v-0.04c0-1.39-0.97-2.1-2.54-2.1h-3.21V425.25 M380.44,417.11h-6.72h-1v1v14.7v1h1h3.23h1v-1v-3.7
					h1.01l2.85,4.26l0.3,0.44h0.53h3.78h1.9l-1.07-1.56l-2.94-4.29c1.71-1.04,2.67-2.79,2.67-4.95c0-1.69-0.54-3.09-1.55-4.11
					C384.26,417.73,382.54,417.11,380.44,417.11 M377.95,422.03h2.21c1.54,0,1.54,0.77,1.54,1.1c0,0.93-0.8,1.12-1.48,1.12h-2.27
					V422.03z"/>
				<path fill="#FFFFFF" d="M412.38,418.11v2.88h-7.87v2.98h6.93v2.88h-6.93v3.09h7.98v2.88h-11.19v-14.7H412.38z M413.38,417.11h-1
					h-11.09h-1v1v14.7v1h1h11.19h1v-1v-2.88v-1h-1h-6.98v-1.09h5.93h1v-1v-2.88v-1h-1h-5.93v-0.98h6.87h1v-1v-2.88V417.11z"/>
				<path fill="#FFFFFF" d="M432.48,417.9c2.14,0,3.97,0.67,5.46,1.87l-1.68,2.44c-1.3-0.9-2.58-1.45-3.82-1.45
					c-1.24,0-1.89,0.57-1.89,1.28v0.04c0,0.97,0.63,1.28,3.17,1.93c2.98,0.78,4.66,1.85,4.66,4.41v0.04c0,2.92-2.22,4.56-5.4,4.56
					c-2.23,0-4.47-0.78-6.24-2.35l1.91-2.29c1.32,1.09,2.71,1.79,4.39,1.79c1.32,0,2.12-0.53,2.12-1.39v-0.04
					c0-0.82-0.5-1.24-2.96-1.87c-2.96-0.76-4.87-1.57-4.87-4.49v-0.04C427.33,419.66,429.47,417.9,432.48,417.9 M432.48,416.9
					c-3.62,0-6.15,2.23-6.15,5.43c0,3.76,2.66,4.75,5.62,5.5c1.77,0.46,2.13,0.72,2.21,0.82c0,0,0,0.03,0,0.08
					c0,0.29-0.58,0.43-1.12,0.43c-1.29,0-2.45-0.48-3.75-1.56l-0.77-0.63l-0.64,0.76l-1.91,2.29l-0.62,0.74l0.72,0.64
					c1.88,1.68,4.33,2.61,6.9,2.61c3.89,0,6.4-2.18,6.4-5.56c0-3.54-2.73-4.72-5.41-5.42c-0.55-0.14-2.21-0.56-2.41-0.84
					c0,0-0.01-0.04-0.01-0.13c0-0.16,0.32-0.32,0.89-0.32c0.96,0,2.02,0.42,3.25,1.27l0.82,0.57l0.57-0.83l1.68-2.44l0.53-0.76
					l-0.73-0.58C436.83,417.6,434.79,416.9,432.48,416.9"/>
				<path fill="#FFFFFF" d="M460.76,417.86c4.54,0,7.79,3.38,7.79,7.56v0.04c0,4.18-3.3,7.6-7.83,7.6c-4.53,0-7.79-3.38-7.79-7.56
					v-0.04C452.93,421.28,456.23,417.86,460.76,417.86 M460.76,430.08c2.6,0,4.41-2.06,4.41-4.58v-0.04c0-2.52-1.85-4.62-4.45-4.62
					s-4.41,2.06-4.41,4.58v0.04C456.31,427.98,458.16,430.08,460.76,430.08 M460.76,416.86c-4.95,0-8.83,3.78-8.83,8.6
					c0,4.92,3.78,8.6,8.79,8.6c4.95,0,8.83-3.78,8.83-8.6C469.55,420.54,465.77,416.86,460.76,416.86 M460.76,429.08
					c-1.97,0-3.45-1.56-3.45-3.62c0-2.12,1.43-3.62,3.41-3.62c1.97,0,3.45,1.56,3.45,3.62
					C464.17,427.57,462.74,429.08,460.76,429.08"/>
				<path fill="#FFFFFF" d="M490.54,418.11c1.87,0,3.32,0.52,4.28,1.49c0.82,0.82,1.26,1.97,1.26,3.36V423
					c0,2.37-1.28,3.86-3.15,4.56l3.59,5.25h-3.78l-3.15-4.7h-2.54v4.7h-3.23v-14.7H490.54 M487.05,425.25h3.27
					c1.58,0,2.48-0.84,2.48-2.08v-0.04c0-1.39-0.97-2.1-2.54-2.1h-3.21V425.25 M490.54,417.11h-6.72h-1v1v14.7v1h1h3.23h1v-1v-3.7
					h1.01l2.85,4.26l0.3,0.44h0.53h3.78h1.9l-1.07-1.56l-2.94-4.29c1.71-1.04,2.67-2.79,2.67-4.95c0-1.69-0.54-3.09-1.55-4.11
					C494.36,417.73,492.64,417.11,490.54,417.11 M488.05,422.03h2.21c1.54,0,1.54,0.77,1.54,1.1c0,0.93-0.8,1.12-1.48,1.12h-2.27
					V422.03z"/>
				<path fill="#FFFFFF" d="M522.52,418.11v2.98h-4.47v11.72h-3.23v-11.72h-4.47v-2.98H522.52z M523.52,417.11h-1h-12.18h-1v1v2.98
					v1h1h3.47v10.72v1h1h3.23h1v-1v-10.72h3.47h1v-1v-2.98V417.11z"/>
				<path fill="#FFFFFF" d="M359.19,399.16c0-4.97-4.03-9-9-9s-9,4.03-9,9c0,4.97,4.03,9,9,9S359.19,404.13,359.19,399.16"/>
			</g>
			<g>
				<path fill="#006837" d="M388.42,392.91v14.7h-3.21v-9.6l-4.14,6.28h-0.08l-4.09-6.21v9.53h-3.17v-14.7h3.48l3.86,6.21l3.86-6.21
					H388.42z M389.42,391.91h-1h-3.48h-0.56l-0.29,0.47l-3.01,4.85l-3.01-4.85l-0.29-0.47h-0.56h-3.48h-1v1v14.7v1h1h3.17h1v-1v-6.2
					l2.26,3.43l0.3,0.45h0.54h0.08h0.54l0.3-0.45l2.3-3.49v6.26v1h1h3.21h1v-1v-14.7V391.91z"/>
				<path fill="#006837" d="M415.42,392.91v2.88h-7.87v2.98h6.93v2.88h-6.93v3.09h7.98v2.88h-11.19v-14.7H415.42z M416.42,391.91h-1
					h-11.09h-1v1v14.7v1h1h11.19h1v-1v-2.88v-1h-1h-6.98v-1.09h5.93h1v-1v-2.88v-1h-1h-5.93v-0.98h6.87h1v-1v-2.88V391.91z"/>
				<path fill="#006837" d="M434.03,392.91v11.76h7.33v2.94H430.8v-14.7H434.03z M435.03,391.91h-1h-3.23h-1v1v14.7v1h1h10.56h1v-1
					v-2.94v-1h-1h-6.33v-10.76V391.91z"/>
				<path fill="#006837" d="M462.9,392.91c1.87,0,3.32,0.53,4.28,1.49c0.82,0.82,1.26,1.97,1.26,3.36v0.04
					c0,2.37-1.28,3.86-3.15,4.56l3.59,5.25h-3.78l-3.15-4.7h-2.54v4.7h-3.23v-14.7H462.9 M459.42,400.05h3.27
					c1.58,0,2.48-0.84,2.48-2.08v-0.04c0-1.38-0.97-2.1-2.54-2.1h-3.21V400.05 M462.9,391.91h-6.72h-1v1v14.7v1h1h3.23h1v-1v-3.7
					h1.01l2.85,4.26l0.3,0.44h0.53h3.78h1.9l-1.07-1.56l-2.94-4.29c1.71-1.04,2.67-2.79,2.67-4.95c0-1.69-0.54-3.09-1.55-4.11
					C466.73,392.53,465,391.91,462.9,391.91 M460.42,396.83h2.21c1.54,0,1.54,0.77,1.54,1.1c0,0.93-0.8,1.12-1.48,1.12h-2.27V396.83
					z"/>
				<path fill="#006837" d="M490.94,392.66c4.54,0,7.79,3.38,7.79,7.56v0.04c0,4.18-3.3,7.6-7.83,7.6c-4.53,0-7.79-3.38-7.79-7.56
					v-0.04C483.11,396.08,486.4,392.66,490.94,392.66 M490.94,404.88c2.6,0,4.41-2.06,4.41-4.58v-0.04c0-2.52-1.85-4.62-4.45-4.62
					s-4.41,2.06-4.41,4.58v0.04C486.49,402.78,488.33,404.88,490.94,404.88 M490.94,391.66c-4.95,0-8.83,3.78-8.83,8.6
					c0,4.92,3.78,8.6,8.79,8.6c4.95,0,8.83-3.78,8.83-8.6C499.73,395.34,495.95,391.66,490.94,391.66 M490.94,403.88
					c-1.97,0-3.45-1.56-3.45-3.62c0-2.12,1.43-3.62,3.41-3.62c1.97,0,3.45,1.56,3.45,3.62
					C494.35,402.37,492.91,403.88,490.94,403.88"/>
				<path fill="#006837" d="M518.62,392.7c2.14,0,3.97,0.67,5.46,1.87L522.4,397c-1.3-0.9-2.58-1.45-3.82-1.45
					c-1.24,0-1.89,0.57-1.89,1.28v0.04c0,0.96,0.63,1.28,3.17,1.93c2.98,0.78,4.66,1.85,4.66,4.41v0.04c0,2.92-2.22,4.56-5.4,4.56
					c-2.22,0-4.47-0.78-6.23-2.35l1.91-2.29c1.32,1.09,2.71,1.78,4.39,1.78c1.32,0,2.12-0.52,2.12-1.39v-0.04
					c0-0.82-0.5-1.24-2.96-1.87c-2.96-0.76-4.87-1.58-4.87-4.49v-0.04C513.47,394.46,515.61,392.7,518.62,392.7 M518.62,391.7
					c-3.62,0-6.14,2.23-6.14,5.43c0,3.76,2.66,4.75,5.62,5.5c1.77,0.45,2.13,0.72,2.2,0.81c0,0,0,0.03,0,0.08
					c0,0.29-0.56,0.43-1.12,0.43c-1.29,0-2.45-0.48-3.75-1.56l-0.77-0.63l-0.64,0.76l-1.91,2.29l-0.62,0.74l0.72,0.64
					c1.88,1.68,4.33,2.61,6.9,2.61c3.89,0,6.4-2.18,6.4-5.56c0-3.54-2.73-4.72-5.41-5.42c-0.55-0.14-2.21-0.57-2.41-0.84
					c0,0-0.01-0.04-0.01-0.12c0-0.14,0.27-0.32,0.89-0.32c0.94,0,2.04,0.43,3.25,1.27l0.82,0.57l0.57-0.83l1.68-2.44l0.53-0.77
					l-0.73-0.58C522.98,392.4,520.93,391.7,518.62,391.7"/>
				<path fill="#006837" d="M550.81,392.91v2.88h-7.87v2.98h6.93v2.88h-6.93v3.09h7.98v2.88h-11.19v-14.7H550.81z M551.81,391.91h-1
					h-11.09h-1v1v14.7v1h1h11.19h1v-1v-2.88v-1h-1h-6.98v-1.09h5.93h1v-1v-2.88v-1h-1h-5.93v-0.98h6.87h1v-1v-2.88V391.91z"/>
				<path fill="#006837" d="M380.44,418.11c1.87,0,3.32,0.52,4.28,1.49c0.82,0.82,1.26,1.97,1.26,3.36V423
					c0,2.37-1.28,3.86-3.15,4.56l3.59,5.25h-3.78l-3.15-4.7h-2.54v4.7h-3.23v-14.7H380.44 M376.95,425.25h3.27
					c1.58,0,2.48-0.84,2.48-2.08v-0.04c0-1.39-0.97-2.1-2.54-2.1h-3.21V425.25 M380.44,417.11h-6.72h-1v1v14.7v1h1h3.23h1v-1v-3.7
					h1.01l2.85,4.26l0.3,0.44h0.53h3.78h1.9l-1.07-1.56l-2.94-4.29c1.71-1.04,2.67-2.79,2.67-4.95c0-1.69-0.54-3.09-1.55-4.11
					C384.26,417.73,382.54,417.11,380.44,417.11 M377.95,422.03h2.21c1.54,0,1.54,0.77,1.54,1.1c0,0.93-0.8,1.12-1.48,1.12h-2.27
					V422.03z"/>
				<path fill="#006837" d="M412.38,418.11v2.88h-7.87v2.98h6.93v2.88h-6.93v3.09h7.98v2.88h-11.19v-14.7H412.38z M413.38,417.11h-1
					h-11.09h-1v1v14.7v1h1h11.19h1v-1v-2.88v-1h-1h-6.98v-1.09h5.93h1v-1v-2.88v-1h-1h-5.93v-0.98h6.87h1v-1v-2.88V417.11z"/>
				<path fill="#006837" d="M432.48,417.9c2.14,0,3.97,0.67,5.46,1.87l-1.68,2.44c-1.3-0.9-2.58-1.45-3.82-1.45
					c-1.24,0-1.89,0.57-1.89,1.28v0.04c0,0.97,0.63,1.28,3.17,1.93c2.98,0.78,4.66,1.85,4.66,4.41v0.04c0,2.92-2.22,4.56-5.4,4.56
					c-2.23,0-4.47-0.78-6.24-2.35l1.91-2.29c1.32,1.09,2.71,1.79,4.39,1.79c1.32,0,2.12-0.53,2.12-1.39v-0.04
					c0-0.82-0.5-1.24-2.96-1.87c-2.96-0.76-4.87-1.57-4.87-4.49v-0.04C427.33,419.66,429.47,417.9,432.48,417.9 M432.48,416.9
					c-3.62,0-6.15,2.23-6.15,5.43c0,3.76,2.66,4.75,5.62,5.5c1.77,0.46,2.13,0.72,2.21,0.82c0,0,0,0.03,0,0.08
					c0,0.29-0.58,0.43-1.12,0.43c-1.29,0-2.45-0.48-3.75-1.56l-0.77-0.63l-0.64,0.76l-1.91,2.29l-0.62,0.74l0.72,0.64
					c1.88,1.68,4.33,2.61,6.9,2.61c3.89,0,6.4-2.18,6.4-5.56c0-3.54-2.73-4.72-5.41-5.42c-0.55-0.14-2.21-0.56-2.41-0.84
					c0,0-0.01-0.04-0.01-0.13c0-0.16,0.32-0.32,0.89-0.32c0.96,0,2.02,0.42,3.25,1.27l0.82,0.57l0.57-0.83l1.68-2.44l0.53-0.76
					l-0.73-0.58C436.83,417.6,434.79,416.9,432.48,416.9"/>
				<path fill="#006837" d="M460.76,417.86c4.54,0,7.79,3.38,7.79,7.56v0.04c0,4.18-3.3,7.6-7.83,7.6c-4.53,0-7.79-3.38-7.79-7.56
					v-0.04C452.93,421.28,456.23,417.86,460.76,417.86 M460.76,430.08c2.6,0,4.41-2.06,4.41-4.58v-0.04c0-2.52-1.85-4.62-4.45-4.62
					s-4.41,2.06-4.41,4.58v0.04C456.31,427.98,458.16,430.08,460.76,430.08 M460.76,416.86c-4.95,0-8.83,3.78-8.83,8.6
					c0,4.92,3.78,8.6,8.79,8.6c4.95,0,8.83-3.78,8.83-8.6C469.55,420.54,465.77,416.86,460.76,416.86 M460.76,429.08
					c-1.97,0-3.45-1.56-3.45-3.62c0-2.12,1.43-3.62,3.41-3.62c1.97,0,3.45,1.56,3.45,3.62
					C464.17,427.57,462.74,429.08,460.76,429.08"/>
				<path fill="#006837" d="M490.54,418.11c1.87,0,3.32,0.52,4.28,1.49c0.82,0.82,1.26,1.97,1.26,3.36V423
					c0,2.37-1.28,3.86-3.15,4.56l3.59,5.25h-3.78l-3.15-4.7h-2.54v4.7h-3.23v-14.7H490.54 M487.05,425.25h3.27
					c1.58,0,2.48-0.84,2.48-2.08v-0.04c0-1.39-0.97-2.1-2.54-2.1h-3.21V425.25 M490.54,417.11h-6.72h-1v1v14.7v1h1h3.23h1v-1v-3.7
					h1.01l2.85,4.26l0.3,0.44h0.53h3.78h1.9l-1.07-1.56l-2.94-4.29c1.71-1.04,2.67-2.79,2.67-4.95c0-1.69-0.54-3.09-1.55-4.11
					C494.36,417.73,492.64,417.11,490.54,417.11 M488.05,422.03h2.21c1.54,0,1.54,0.77,1.54,1.1c0,0.93-0.8,1.12-1.48,1.12h-2.27
					V422.03z"/>
				<path fill="#006837" d="M522.52,418.11v2.98h-4.47v11.72h-3.23v-11.72h-4.47v-2.98H522.52z M523.52,417.11h-1h-12.18h-1v1v2.98
					v1h1h3.47v10.72v1h1h3.23h1v-1v-10.72h3.47h1v-1v-2.98V417.11z"/>
				<path fill="#006837" d="M359.19,399.16c0-4.97-4.03-9-9-9s-9,4.03-9,9c0,4.97,4.03,9,9,9S359.19,404.13,359.19,399.16"/>
			</g>
		</g>
		<g id="text">
			<polygon fill="#FFFFFF" points="373.72,392.91 377.2,392.91 381.07,399.12 384.93,392.91 388.42,392.91 388.42,407.61
				385.2,407.61 385.2,398.01 381.07,404.29 380.98,404.29 376.89,398.07 376.89,407.61 373.72,407.61 			"/>
			<polygon fill="#FFFFFF" points="404.34,392.91 415.42,392.91 415.42,395.79 407.55,395.79 407.55,398.77 414.48,398.77
				414.48,401.64 407.55,401.64 407.55,404.73 415.53,404.73 415.53,407.61 404.34,407.61 			"/>
			<polygon fill="#FFFFFF" points="430.8,392.91 434.03,392.91 434.03,404.67 441.36,404.67 441.36,407.61 430.8,407.61 			"/>
			<path fill="#FFFFFF" d="M456.19,392.91h6.72c1.87,0,3.32,0.53,4.28,1.49c0.82,0.82,1.26,1.97,1.26,3.36v0.04
				c0,2.37-1.28,3.86-3.15,4.56l3.59,5.25h-3.78l-3.15-4.7h-2.54v4.7h-3.23V392.91z M462.69,400.05c1.58,0,2.48-0.84,2.48-2.08
				v-0.04c0-1.38-0.97-2.1-2.54-2.1h-3.21v4.22H462.69z"/>
			<path fill="#FFFFFF" d="M483.11,400.3v-0.04c0-4.18,3.3-7.6,7.83-7.6c4.53,0,7.79,3.38,7.79,7.56v0.04c0,4.18-3.3,7.6-7.83,7.6
				C486.36,407.86,483.11,404.48,483.11,400.3 M495.35,400.3v-0.04c0-2.52-1.85-4.62-4.45-4.62c-2.6,0-4.41,2.06-4.41,4.58v0.04
				c0,2.52,1.85,4.62,4.45,4.62C493.54,404.88,495.35,402.82,495.35,400.3"/>
			<path fill="#FFFFFF" d="M512.89,405.47l1.91-2.29c1.32,1.09,2.71,1.78,4.39,1.78c1.32,0,2.12-0.52,2.12-1.39v-0.04
				c0-0.82-0.5-1.24-2.96-1.87c-2.96-0.76-4.87-1.58-4.87-4.49v-0.04c0-2.67,2.14-4.43,5.14-4.43c2.14,0,3.97,0.67,5.46,1.87
				L522.4,397c-1.3-0.9-2.58-1.45-3.82-1.45c-1.24,0-1.89,0.57-1.89,1.28v0.04c0,0.96,0.63,1.28,3.17,1.93
				c2.98,0.78,4.66,1.85,4.66,4.41v0.04c0,2.92-2.23,4.56-5.4,4.56C516.9,407.82,514.65,407.04,512.89,405.47"/>
			<polygon fill="#FFFFFF" points="539.72,392.91 550.81,392.91 550.81,395.79 542.94,395.79 542.94,398.77 549.87,398.77
				549.87,401.64 542.94,401.64 542.94,404.73 550.91,404.73 550.91,407.61 539.72,407.61 			"/>
			<path fill="#FFFFFF" d="M373.72,418.11h6.72c1.87,0,3.32,0.52,4.28,1.49c0.82,0.82,1.26,1.97,1.26,3.36V423
				c0,2.37-1.28,3.86-3.15,4.56l3.59,5.25h-3.78l-3.15-4.7h-2.54v4.7h-3.23V418.11z M380.23,425.25c1.58,0,2.48-0.84,2.48-2.08
				v-0.04c0-1.39-0.97-2.1-2.54-2.1h-3.21v4.22H380.23z"/>
			<polygon fill="#FFFFFF" points="401.29,418.11 412.38,418.11 412.38,420.99 404.5,420.99 404.5,423.97 411.43,423.97
				411.43,426.84 404.5,426.84 404.5,429.93 412.48,429.93 412.48,432.81 401.29,432.81 			"/>
			<path fill="#FFFFFF" d="M426.74,430.67l1.91-2.29c1.32,1.09,2.71,1.79,4.39,1.79c1.32,0,2.12-0.53,2.12-1.39v-0.04
				c0-0.82-0.5-1.24-2.96-1.87c-2.96-0.76-4.87-1.57-4.87-4.49v-0.04c0-2.67,2.14-4.43,5.14-4.43c2.14,0,3.97,0.67,5.46,1.87
				l-1.68,2.44c-1.3-0.9-2.58-1.45-3.82-1.45c-1.24,0-1.89,0.57-1.89,1.28v0.04c0,0.97,0.63,1.28,3.17,1.93
				c2.98,0.78,4.66,1.85,4.66,4.41v0.04c0,2.92-2.23,4.56-5.4,4.56C430.75,433.02,428.51,432.24,426.74,430.67"/>
			<path fill="#FFFFFF" d="M452.93,425.5v-0.04c0-4.18,3.3-7.6,7.83-7.6c4.53,0,7.79,3.38,7.79,7.56v0.04c0,4.18-3.3,7.6-7.83,7.6
				C456.18,433.06,452.93,429.68,452.93,425.5 M465.17,425.5v-0.04c0-2.52-1.85-4.62-4.45-4.62c-2.6,0-4.41,2.06-4.41,4.58v0.04
				c0,2.52,1.85,4.62,4.45,4.62C463.36,430.08,465.17,428.02,465.17,425.5"/>
			<path fill="#FFFFFF" d="M483.82,418.11h6.72c1.87,0,3.32,0.52,4.28,1.49c0.82,0.82,1.26,1.97,1.26,3.36V423
				c0,2.37-1.28,3.86-3.15,4.56l3.59,5.25h-3.78l-3.15-4.7h-2.54v4.7h-3.23V418.11z M490.33,425.25c1.57,0,2.48-0.84,2.48-2.08
				v-0.04c0-1.39-0.97-2.1-2.54-2.1h-3.21v4.22H490.33z"/>
			<polygon fill="#FFFFFF" points="514.82,421.09 510.34,421.09 510.34,418.11 522.52,418.11 522.52,421.09 518.05,421.09
				518.05,432.81 514.82,432.81 			"/>
			<path fill="#FFFFFF" d="M350.19,409.16c-5.51,0-10-4.49-10-10s4.49-10,10-10s10,4.49,10,10S355.7,409.16,350.19,409.16
				 M350.19,391.16c-4.41,0-8,3.59-8,8s3.59,8,8,8s8-3.59,8-8S354.6,391.16,350.19,391.16"/>
		</g>
	</g>
	<g id="daufuskie-marina">
		<g id="hover_1_" class="melrose-hover-green">
			<path fill="#006837" d="M437.94,142.67c4.62,0,7.81,3.17,7.81,7.31v0.04c0,4.13-3.19,7.35-7.81,7.35h-5.73v-14.7H437.94
				 M435.44,154.45h2.5c2.65,0,4.43-1.78,4.43-4.39v-0.04c0-2.6-1.79-4.43-4.43-4.43h-2.5V154.45 M437.94,141.67h-5.73h-1v1v14.7v1
				h1h5.73c5.02,0,8.81-3.59,8.81-8.35C446.75,145.16,443.04,141.67,437.94,141.67 M436.44,146.59h1.5c2.08,0,3.43,1.35,3.43,3.43
				c0,2.1-1.35,3.43-3.43,3.43h-1.5V146.59z"/>
			<path fill="#006837" d="M467.99,142.56l6.3,14.8h-3.38l-1.34-3.3h-6.21l-1.34,3.3h-3.3l6.3-14.8H467.99z M464.5,151.21h3.91
				l-1.95-4.77L464.5,151.21 M468.65,141.56h-0.66h-2.98h-0.66l-0.26,0.61l-6.3,14.8l-0.59,1.39h1.51h3.3h0.67l0.25-0.62l1.09-2.68
				h4.87l1.09,2.68l0.25,0.62h0.67h3.38h1.51l-0.59-1.39l-6.3-14.8L468.65,141.56z M465.99,150.21l0.46-1.13l0.46,1.13H465.99z"/>
			<path fill="#006837" d="M501,142.67v8.29c0,4.45-2.5,6.64-6.44,6.64c-3.95,0-6.36-2.2-6.36-6.53v-8.4h3.23v8.31
				c0,2.39,1.2,3.63,3.17,3.63c1.97,0,3.17-1.2,3.17-3.53v-8.42H501 M502,141.67h-1h-3.23h-1v1v8.42c0,2.27-1.24,2.53-2.17,2.53
				c-0.54,0-2.17,0-2.17-2.63v-8.31v-1h-1h-3.23h-1v1v8.4c0,4.72,2.75,7.53,7.36,7.53c4.66,0,7.44-2.85,7.44-7.64v-8.29V141.67z"/>
			<path fill="#006837" d="M527.88,142.67v2.94h-7.96v3.13h7.01v2.94h-7.01v5.69h-3.23v-14.7H527.88z M528.88,141.67h-1h-11.19h-1v1
				v14.7v1h1h3.23h1v-1v-4.69h6.01h1v-1v-2.94v-1h-1h-6.01v-1.13h6.96h1v-1v-2.94V141.67z"/>
			<path fill="#006837" d="M555.43,142.67v8.29c0,4.45-2.5,6.64-6.45,6.64c-3.95,0-6.36-2.2-6.36-6.53v-8.4h3.23v8.31
				c0,2.39,1.2,3.63,3.17,3.63c1.97,0,3.17-1.2,3.17-3.53v-8.42H555.43 M556.43,141.67h-1h-3.23h-1v1v8.42
				c0,2.27-1.24,2.53-2.17,2.53c-0.54,0-2.17,0-2.17-2.63v-8.31v-1h-1h-3.23h-1v1v8.4c0,4.72,2.75,7.53,7.36,7.53
				c4.66,0,7.45-2.85,7.45-7.64v-8.29V141.67z"/>
			<path fill="#006837" d="M575.84,142.46c2.14,0,3.97,0.67,5.46,1.87l-1.68,2.44c-1.3-0.9-2.58-1.45-3.82-1.45
				c-1.24,0-1.89,0.57-1.89,1.28v0.04c0,0.96,0.63,1.28,3.17,1.93c2.98,0.78,4.66,1.85,4.66,4.41v0.04c0,2.92-2.22,4.56-5.4,4.56
				c-2.23,0-4.47-0.78-6.24-2.35l1.91-2.29c1.32,1.09,2.71,1.78,4.39,1.78c1.32,0,2.12-0.53,2.12-1.39v-0.04
				c0-0.82-0.5-1.24-2.96-1.87c-2.96-0.76-4.87-1.57-4.87-4.49v-0.04C570.7,144.22,572.84,142.46,575.84,142.46 M575.84,141.46
				c-3.62,0-6.14,2.23-6.14,5.43c0,3.76,2.66,4.75,5.62,5.5c1.78,0.45,2.13,0.72,2.2,0.81c0,0,0,0.03,0,0.09
				c0,0.29-0.56,0.43-1.12,0.43c-1.29,0-2.45-0.48-3.75-1.56l-0.77-0.63l-0.64,0.76l-1.91,2.29l-0.62,0.74l0.72,0.64
				c1.88,1.68,4.33,2.61,6.9,2.61c3.89,0,6.4-2.18,6.4-5.56c0-3.54-2.73-4.72-5.41-5.42c-0.55-0.14-2.21-0.57-2.41-0.84
				c0,0-0.01-0.04-0.01-0.12c0-0.14,0.27-0.32,0.89-0.32c0.94,0,2.04,0.43,3.25,1.27l0.82,0.57l0.57-0.83l1.68-2.44l0.53-0.77
				l-0.72-0.58C580.2,142.16,578.16,141.46,575.84,141.46"/>
			<path fill="#006837" d="M610.05,142.67l-5.98,6.24l6.26,8.46h-3.88l-4.55-6.26l-1.7,1.76v4.49h-3.23v-14.7h3.23v6.42l5.96-6.42
				H610.05z M612.4,141.67h-2.34h-3.91h-0.44l-0.3,0.32l-4.23,4.56v-3.88v-1h-1h-3.23h-1v1v14.7v1h1h3.23h1v-1v-4.09l0.59-0.62
				l3.86,5.29l0.3,0.41h0.51h3.88h1.98l-1.18-1.59l-5.75-7.78l5.4-5.63L612.4,141.67z"/>
			<path fill="#006837" d="M628.05,157.37h-3.23v-14.7h3.23V157.37z M629.05,141.67h-1h-3.23h-1v1v14.7v1h1h3.23h1v-1v-14.7V141.67z
				"/>
			<path fill="#006837" d="M655.2,142.67v2.88h-7.87v2.98h6.93v2.88h-6.93v3.09h7.98v2.88h-11.19v-14.7H655.2z M656.2,141.67h-1
				h-11.09h-1v1v14.7v1h1h11.19h1v-1v-2.88v-1h-1h-6.98v-1.09h5.93h1v-1v-2.88v-1h-1h-5.93v-0.98h6.87h1v-1v-2.88V141.67z"/>
			<path fill="#006837" d="M446.9,167.87v14.7h-3.21v-9.59l-4.14,6.28h-0.08l-4.09-6.21v9.53h-3.17v-14.7h3.48l3.86,6.21l3.86-6.21
				H446.9z M447.9,166.87h-1h-3.48h-0.56l-0.29,0.47l-3.01,4.85l-3.01-4.85l-0.29-0.47h-0.56h-3.48h-1v1v14.7v1h1h3.17h1v-1v-6.2
				l2.26,3.43l0.3,0.45h0.54h0.08h0.54l0.3-0.45l2.3-3.49v6.26v1h1h3.21h1v-1v-14.7V166.87z"/>
			<path fill="#006837" d="M470.84,167.76l6.3,14.8h-3.38l-1.34-3.3h-6.21l-1.34,3.3h-3.3l6.3-14.8H470.84z M467.36,176.41h3.9
				l-1.95-4.77L467.36,176.41 M471.51,166.76h-0.66h-2.98h-0.66l-0.26,0.61l-6.3,14.8l-0.59,1.39h1.51h3.3h0.67l0.25-0.62l1.09-2.67
				h4.87l1.09,2.67l0.25,0.62h0.67h3.38h1.51l-0.59-1.39l-6.3-14.8L471.51,166.76z M468.85,175.41l0.46-1.13l0.46,1.13H468.85z"/>
			<path fill="#006837" d="M498.52,167.87c1.87,0,3.32,0.52,4.28,1.49c0.82,0.82,1.26,1.97,1.26,3.36v0.04
				c0,2.37-1.28,3.86-3.15,4.56l3.59,5.25h-3.78l-3.15-4.7h-2.54v4.7h-3.23v-14.7H498.52 M495.04,175.01h3.27
				c1.58,0,2.48-0.84,2.48-2.08v-0.04c0-1.39-0.97-2.1-2.54-2.1h-3.21V175.01 M498.52,166.87h-6.72h-1v1v14.7v1h1h3.23h1v-1v-3.7
				h1.01l2.85,4.26l0.3,0.44h0.53h3.78h1.9l-1.07-1.56l-2.94-4.29c1.71-1.04,2.67-2.79,2.67-4.95c0-1.69-0.54-3.09-1.55-4.11
				C502.35,167.49,500.62,166.87,498.52,166.87 M496.04,171.79h2.21c1.54,0,1.54,0.77,1.54,1.1c0,0.93-0.8,1.12-1.48,1.12h-2.27
				V171.79z"/>
			<path fill="#006837" d="M522.76,182.57h-3.23v-14.7h3.23V182.57z M523.76,166.87h-1h-3.23h-1v1v14.7v1h1h3.23h1v-1v-14.7V166.87z
				"/>
			<path fill="#006837" d="M551.88,167.87v14.7h-2.75l-7.12-9.34v9.34h-3.19v-14.7h2.98l6.89,9.05v-9.05H551.88z M552.88,166.87h-1
				h-3.19h-1v1v6.08l-5.09-6.69l-0.3-0.39h-0.5h-2.98h-1v1v14.7v1h1h3.19h1v-1v-6.38l5.32,6.99l0.3,0.39h0.5h2.75h1v-1v-14.7V166.87
				z"/>
			<path fill="#006837" d="M575.82,167.76l6.3,14.8h-3.38l-1.34-3.3h-6.21l-1.34,3.3h-3.3l6.3-14.8H575.82z M572.34,176.41h3.9
				l-1.95-4.77L572.34,176.41 M576.48,166.76h-0.66h-2.98h-0.66l-0.26,0.61l-6.3,14.8l-0.59,1.39h1.51h3.3h0.67l0.25-0.62l1.09-2.67
				h4.87l1.09,2.67l0.25,0.62h0.67h3.38h1.51l-0.59-1.39l-6.3-14.8L576.48,166.76z M573.83,175.41l0.46-1.13l0.46,1.13H573.83z"/>
			<path fill="#006837" d="M416.03,148.37c0-4.97-4.03-9-9-9c-4.97,0-9,4.03-9,9c0,4.97,4.03,9,9,9
				C412,157.37,416.03,153.34,416.03,148.37"/>
		</g>
		<g id="text_1_">
			<path fill="#FFFFFF" d="M432.21,142.67h5.73c4.62,0,7.81,3.17,7.81,7.31v0.04c0,4.14-3.19,7.35-7.81,7.35h-5.73V142.67z
				 M437.94,154.45c2.65,0,4.43-1.79,4.43-4.39v-0.04c0-2.6-1.79-4.43-4.43-4.43h-2.5v8.86H437.94z"/>
			<path fill="#FFFFFF" d="M465.01,142.56h2.98l6.3,14.8h-3.38l-1.34-3.3h-6.22l-1.34,3.3h-3.3L465.01,142.56z M468.41,151.21
				l-1.95-4.77l-1.95,4.77H468.41z"/>
			<path fill="#FFFFFF" d="M488.19,151.07v-8.4h3.23v8.31c0,2.39,1.2,3.63,3.17,3.63c1.97,0,3.17-1.2,3.17-3.53v-8.42H501v8.29
				c0,4.45-2.5,6.63-6.45,6.63C490.61,157.6,488.19,155.39,488.19,151.07"/>
			<polygon fill="#FFFFFF" points="516.69,142.67 527.88,142.67 527.88,145.61 519.92,145.61 519.92,148.74 526.94,148.74
				526.94,151.68 519.92,151.68 519.92,157.37 516.69,157.37 			"/>
			<path fill="#FFFFFF" d="M542.62,151.07v-8.4h3.23v8.31c0,2.39,1.2,3.63,3.17,3.63c1.97,0,3.17-1.2,3.17-3.53v-8.42h3.23v8.29
				c0,4.45-2.5,6.63-6.45,6.63C545.04,157.6,542.62,155.39,542.62,151.07"/>
			<path fill="#FFFFFF" d="M570.11,155.22l1.91-2.29c1.32,1.09,2.71,1.78,4.39,1.78c1.32,0,2.12-0.52,2.12-1.39v-0.04
				c0-0.82-0.5-1.24-2.96-1.87c-2.96-0.76-4.87-1.58-4.87-4.49v-0.04c0-2.67,2.14-4.43,5.14-4.43c2.14,0,3.97,0.67,5.46,1.87
				l-1.68,2.44c-1.3-0.9-2.58-1.45-3.82-1.45s-1.89,0.57-1.89,1.28v0.04c0,0.96,0.63,1.28,3.17,1.93c2.98,0.78,4.66,1.85,4.66,4.41
				v0.04c0,2.92-2.23,4.56-5.4,4.56C574.12,157.58,571.88,156.8,570.11,155.22"/>
			<polygon fill="#FFFFFF" points="596.95,142.67 600.18,142.67 600.18,149.09 606.15,142.67 610.05,142.67 604.07,148.9
				610.33,157.37 606.44,157.37 601.89,151.11 600.18,152.87 600.18,157.37 596.95,157.37 			"/>
			<rect x="624.82" y="142.67" fill="#FFFFFF" width="3.23" height="14.7"/>
			<polygon fill="#FFFFFF" points="644.12,142.67 655.2,142.67 655.2,145.55 647.33,145.55 647.33,148.53 654.26,148.53
				654.26,151.4 647.33,151.4 647.33,154.49 655.31,154.49 655.31,157.37 644.12,157.37 			"/>
			<polygon fill="#FFFFFF" points="432.21,167.87 435.69,167.87 439.55,174.08 443.42,167.87 446.9,167.87 446.9,182.57
				443.69,182.57 443.69,172.97 439.55,179.25 439.47,179.25 435.38,173.03 435.38,182.57 432.21,182.57 			"/>
			<path fill="#FFFFFF" d="M467.86,167.76h2.98l6.3,14.8h-3.38l-1.34-3.3h-6.22l-1.34,3.3h-3.3L467.86,167.76z M471.26,176.41
				l-1.95-4.77l-1.95,4.77H471.26z"/>
			<path fill="#FFFFFF" d="M491.8,167.87h6.72c1.87,0,3.32,0.52,4.28,1.49c0.82,0.82,1.26,1.97,1.26,3.36v0.04
				c0,2.37-1.28,3.86-3.15,4.56l3.59,5.25h-3.78l-3.15-4.7h-2.54v4.7h-3.23V167.87z M498.31,175.01c1.58,0,2.48-0.84,2.48-2.08
				v-0.04c0-1.39-0.97-2.1-2.54-2.1h-3.21v4.22H498.31z"/>
			<rect x="519.52" y="167.87" fill="#FFFFFF" width="3.23" height="14.7"/>
			<polygon fill="#FFFFFF" points="538.82,167.87 541.8,167.87 548.69,176.92 548.69,167.87 551.88,167.87 551.88,182.57
				549.13,182.57 542.01,173.22 542.01,182.57 538.82,182.57 			"/>
			<path fill="#FFFFFF" d="M572.84,167.76h2.98l6.3,14.8h-3.38l-1.34-3.3h-6.21l-1.34,3.3h-3.3L572.84,167.76z M576.24,176.41
				l-1.95-4.77l-1.95,4.77H576.24z"/>
			<path fill="#FFFFFF" d="M407.03,139.37c4.97,0,9,4.03,9,9c0,4.97-4.03,9-9,9s-9-4.03-9-9
				C398.03,143.4,402.06,139.37,407.03,139.37 M407.03,138.37c-5.51,0-10,4.49-10,10c0,5.51,4.49,10,10,10s10-4.49,10-10
				C417.03,142.85,412.55,138.37,407.03,138.37"/>
		</g>
	</g>
	<g id="palmetto-bay-marina">
		<g id="hover_3_" class="melrose-hover-green">
			<path fill="#006837" d="M595.88,33.63c3.51,0,5.63,2.08,5.63,5.08v0.04c0,3.4-2.64,5.17-5.94,5.17h-2.46v4.41h-3.23v-14.7H595.88
				 M593.11,41.04h2.56c1.62,0,2.56-0.97,2.56-2.23v-0.04c0-1.45-1.01-2.23-2.62-2.23h-2.5V41.04 M595.88,32.63h-6h-1v1v14.7v1h1
				h3.23h1v-1v-3.41h1.46c4.15,0,6.94-2.48,6.94-6.17C602.51,35.08,599.84,32.63,595.88,32.63 M594.11,37.55h1.5
				c1.62,0,1.62,0.89,1.62,1.23c0,0.81-0.58,1.27-1.56,1.27h-1.56V37.55z"/>
			<path fill="#006837" d="M622.85,33.53l6.3,14.8h-3.38l-1.34-3.3h-6.22l-1.34,3.3h-3.3l6.3-14.8H622.85z M619.36,42.18h3.91
				l-1.95-4.77L619.36,42.18 M623.51,32.53h-0.66h-2.98h-0.66l-0.26,0.61l-6.3,14.8l-0.59,1.39h1.51h3.3h0.67l0.25-0.62l1.09-2.68
				h4.87l1.09,2.68l0.25,0.62h0.67h3.38h1.51l-0.59-1.39l-6.3-14.8L623.51,32.53z M620.85,41.18l0.46-1.13l0.46,1.13H620.85z"/>
			<path fill="#006837" d="M647.04,33.63v11.76h7.33v2.94h-10.56v-14.7H647.04z M648.04,32.63h-1h-3.23h-1v1v14.7v1h1h10.56h1v-1
				v-2.94v-1h-1h-6.33V33.63V32.63z"/>
			<path fill="#006837" d="M683.89,33.63v14.7h-3.21v-9.6l-4.14,6.28h-0.08l-4.09-6.21v9.53h-3.17v-14.7h3.48l3.86,6.21l3.86-6.21
				H683.89z M684.89,32.63h-1h-3.49h-0.56l-0.29,0.47l-3.01,4.85l-3.01-4.85l-0.29-0.47h-0.56h-3.48h-1v1v14.7v1h1h3.17h1v-1v-6.2
				l2.26,3.43l0.3,0.45h0.54h0.08h0.54l0.3-0.45l2.3-3.49v6.26v1h1h3.21h1v-1v-14.7V32.63z"/>
			<path fill="#006837" d="M710.9,33.63v2.88h-7.87v2.98h6.93v2.88h-6.93v3.09H711v2.88h-11.19v-14.7H710.9z M711.9,32.63h-1h-11.09
				h-1v1v14.7v1h1H711h1v-1v-2.88v-1h-1h-6.98v-1.09h5.93h1v-1v-2.88v-1h-1h-5.93v-0.98h6.87h1v-1v-2.88V32.63z"/>
			<path fill="#006837" d="M737.4,33.63v2.98h-4.47v11.72h-3.23V36.61h-4.47v-2.98H737.4z M738.4,32.63h-1h-12.18h-1v1v2.98v1h1
				h3.47v10.72v1h1h3.23h1v-1V37.61h3.47h1v-1v-2.98V32.63z"/>
			<path fill="#006837" d="M763.4,33.63v2.98h-4.47v11.72h-3.23V36.61h-4.47v-2.98H763.4z M764.4,32.63h-1h-12.18h-1v1v2.98v1h1
				h3.47v10.72v1h1h3.23h1v-1V37.61h3.47h1v-1v-2.98V32.63z"/>
			<path fill="#006837" d="M784.82,33.38c4.53,0,7.79,3.38,7.79,7.56v0.04c0,4.18-3.3,7.6-7.83,7.6c-4.54,0-7.79-3.38-7.79-7.56
				v-0.04C776.99,36.8,780.28,33.38,784.82,33.38 M784.82,45.6c2.6,0,4.41-2.06,4.41-4.58v-0.04c0-2.52-1.85-4.62-4.45-4.62
				c-2.6,0-4.41,2.06-4.41,4.58v0.04C780.37,43.5,782.21,45.6,784.82,45.6 M784.82,32.38c-4.95,0-8.83,3.78-8.83,8.6
				c0,4.92,3.78,8.6,8.79,8.6c4.95,0,8.83-3.78,8.83-8.6C793.61,36.06,789.83,32.38,784.82,32.38 M784.82,44.6
				c-1.97,0-3.45-1.56-3.45-3.62c0-2.11,1.43-3.62,3.41-3.62c1.97,0,3.45,1.56,3.45,3.62C788.23,43.1,786.79,44.6,784.82,44.6"/>
			<path fill="#006837" d="M833.39,33.63c1.68,0,3,0.46,3.84,1.3c0.67,0.67,1.01,1.49,1.01,2.5v0.04c0,1.66-0.88,2.58-1.93,3.17
				c1.7,0.65,2.75,1.64,2.75,3.61v0.04c0,2.69-2.18,4.03-5.5,4.03h-6.99v-14.7H833.39 M829.72,39.57h2.98
				c1.43,0,2.33-0.46,2.33-1.55v-0.04c0-0.97-0.76-1.51-2.12-1.51h-3.19V39.57 M829.72,45.49h3.84c1.43,0,2.29-0.5,2.29-1.59v-0.04
				c0-0.99-0.74-1.6-2.39-1.6h-3.74V45.49 M833.39,32.63h-6.82h-1v1v14.7v1h1h6.99c4.07,0,6.5-1.88,6.5-5.03
				c0-2-0.89-3.13-1.91-3.84c0.72-0.8,1.09-1.8,1.09-2.99c0-1.3-0.44-2.38-1.3-3.25C836.9,33.18,835.32,32.63,833.39,32.63
				 M830.72,37.47h2.19c1.12,0,1.12,0.38,1.12,0.51c0,0.19,0,0.6-1.33,0.6h-1.98V37.47z M830.72,43.26h2.74
				c1.39,0,1.39,0.43,1.39,0.6c0,0.22,0,0.64-1.29,0.64h-2.84V43.26z"/>
			<path fill="#006837" d="M862.14,33.53l6.3,14.8h-3.38l-1.34-3.3h-6.21l-1.34,3.3h-3.3l6.3-14.8H862.14z M858.65,42.18h3.91
				l-1.95-4.77L858.65,42.18 M862.8,32.53h-0.66h-2.98h-0.66l-0.26,0.61l-6.3,14.8l-0.59,1.39h1.51h3.3h0.67l0.25-0.62l1.09-2.68
				h4.87l1.09,2.68l0.25,0.62h0.67h3.38h1.51l-0.59-1.39l-6.3-14.8L862.8,32.53z M860.14,41.18l0.46-1.13l0.46,1.13H860.14z"/>
			<path fill="#006837" d="M893.81,33.63l-5.65,8.84v5.86h-3.23v-5.79l-5.65-8.9h3.78l3.51,5.9l3.57-5.9H893.81z M895.63,32.63
				h-1.83h-3.67h-0.56l-0.29,0.48l-2.71,4.47l-2.65-4.47l-0.29-0.49h-0.57h-3.78h-1.82l0.97,1.54l5.49,8.66v5.5v1h1h3.23h1v-1v-5.57
				l5.49-8.59L895.63,32.63z"/>
			<path fill="#006837" d="M758.34,58.83v14.7h-3.21v-9.59l-4.14,6.28h-0.08L746.81,64v9.53h-3.17v-14.7h3.48l3.86,6.21l3.86-6.21
				H758.34z M759.34,57.83h-1h-3.49h-0.56L754,58.3l-3.01,4.85l-3.01-4.85l-0.29-0.47h-0.56h-3.48h-1v1v14.7v1h1h3.17h1v-1v-6.2
				l2.26,3.43l0.3,0.45h0.54h0.08h0.54l0.3-0.45l2.3-3.49v6.26v1h1h3.21h1v-1v-14.7V57.83z"/>
			<path fill="#006837" d="M782.28,58.73l6.3,14.8h-3.38l-1.34-3.3h-6.21l-1.34,3.3H773l6.3-14.8H782.28z M778.79,67.38h3.91
				l-1.95-4.77L778.79,67.38 M782.94,57.73h-0.66h-2.98h-0.66l-0.26,0.61l-6.3,14.8l-0.59,1.39H773h3.3h0.67l0.25-0.62l1.09-2.67
				h4.87l1.09,2.67l0.25,0.62h0.67h3.38h1.51l-0.59-1.39l-6.3-14.8L782.94,57.73z M780.28,66.38l0.46-1.13l0.46,1.13H780.28z"/>
			<path fill="#006837" d="M809.95,58.83c1.87,0,3.32,0.52,4.28,1.49c0.82,0.82,1.26,1.97,1.26,3.36v0.04
				c0,2.37-1.28,3.86-3.15,4.56l3.59,5.25h-3.78l-3.15-4.7h-2.54v4.7h-3.23v-14.7H809.95 M806.47,65.97h3.27
				c1.58,0,2.48-0.84,2.48-2.08v-0.04c0-1.39-0.97-2.1-2.54-2.1h-3.21V65.97 M809.95,57.83h-6.72h-1v1v14.7v1h1h3.23h1v-1v-3.7h1.01
				l2.85,4.26l0.3,0.44h0.53h3.78h1.89l-1.07-1.56l-2.94-4.29c1.71-1.04,2.67-2.79,2.67-4.95c0-1.69-0.54-3.09-1.55-4.11
				C813.78,58.45,812.05,57.83,809.95,57.83 M807.47,62.75h2.21c1.54,0,1.54,0.77,1.54,1.1c0,0.93-0.8,1.12-1.48,1.12h-2.27V62.75z"
				/>
			<path fill="#006837" d="M834.19,73.53h-3.23v-14.7h3.23V73.53z M835.19,57.83h-1h-3.23h-1v1v14.7v1h1h3.23h1v-1v-14.7V57.83z"/>
			<path fill="#006837" d="M863.31,58.83v14.7h-2.75l-7.12-9.34v9.34h-3.19v-14.7h2.98l6.89,9.05v-9.05H863.31z M864.31,57.83h-1
				h-3.19h-1v1v6.08l-5.09-6.69l-0.3-0.39h-0.5h-2.98h-1v1v14.7v1h1h3.19h1v-1v-6.38l5.32,6.99l0.3,0.39h0.5h2.75h1v-1v-14.7V57.83z
				"/>
			<path fill="#006837" d="M887.26,58.73l6.3,14.8h-3.38l-1.34-3.3h-6.21l-1.34,3.3h-3.3l6.3-14.8H887.26z M883.77,67.38h3.91
				l-1.95-4.77L883.77,67.38 M887.92,57.73h-0.66h-2.98h-0.66l-0.26,0.61l-6.3,14.8l-0.59,1.39h1.51h3.3h0.67l0.25-0.62l1.09-2.67
				h4.87l1.09,2.67l0.25,0.62h0.67h3.38h1.51l-0.59-1.39l-6.3-14.8L887.92,57.73z M885.26,66.38l0.46-1.13l0.46,1.13H885.26z"/>
			<path fill="#006837" d="M930.81,41.33c0-4.97-4.03-9-9-9s-9,4.03-9,9c0,4.97,4.03,9,9,9S930.81,46.3,930.81,41.33"/>
		</g>
		<g id="text_2_">
			<path fill="#FFFFFF" d="M589.88,33.63h6c3.51,0,5.63,2.08,5.63,5.08v0.04c0,3.4-2.65,5.17-5.94,5.17h-2.46v4.41h-3.23V33.63z
				 M595.67,41.04c1.62,0,2.56-0.97,2.56-2.23v-0.04c0-1.45-1.01-2.23-2.62-2.23h-2.5v4.49H595.67z"/>
			<path fill="#FFFFFF" d="M619.86,33.53h2.98l6.3,14.8h-3.38l-1.34-3.3h-6.21l-1.34,3.3h-3.3L619.86,33.53z M623.27,42.18
				l-1.95-4.77l-1.95,4.77H623.27z"/>
			<polygon fill="#FFFFFF" points="643.81,33.63 647.04,33.63 647.04,45.39 654.37,45.39 654.37,48.33 643.81,48.33 			"/>
			<polygon fill="#FFFFFF" points="669.19,33.63 672.68,33.63 676.54,39.85 680.41,33.63 683.89,33.63 683.89,48.33 680.68,48.33
				680.68,38.73 676.54,45.01 676.46,45.01 672.36,38.8 672.36,48.33 669.19,48.33 			"/>
			<polygon fill="#FFFFFF" points="699.81,33.63 710.9,33.63 710.9,36.51 703.02,36.51 703.02,39.49 709.95,39.49 709.95,42.37
				703.02,42.37 703.02,45.45 711,45.45 711,48.33 699.81,48.33 			"/>
			<polygon fill="#FFFFFF" points="729.69,36.61 725.22,36.61 725.22,33.63 737.4,33.63 737.4,36.61 732.93,36.61 732.93,48.33
				729.69,48.33 			"/>
			<polygon fill="#FFFFFF" points="755.69,36.61 751.22,36.61 751.22,33.63 763.4,33.63 763.4,36.61 758.92,36.61 758.92,48.33
				755.69,48.33 			"/>
			<path fill="#FFFFFF" d="M776.99,41.02v-0.04c0-4.18,3.3-7.6,7.83-7.6s7.79,3.38,7.79,7.56v0.04c0,4.18-3.3,7.6-7.83,7.6
				S776.99,45.2,776.99,41.02 M789.23,41.02v-0.04c0-2.52-1.85-4.62-4.45-4.62c-2.6,0-4.41,2.06-4.41,4.58v0.04
				c0,2.52,1.85,4.62,4.45,4.62C787.42,45.6,789.23,43.54,789.23,41.02"/>
			<path fill="#FFFFFF" d="M826.57,33.63h6.82c1.68,0,3,0.46,3.84,1.3c0.67,0.67,1.01,1.49,1.01,2.5v0.04
				c0,1.66-0.88,2.58-1.93,3.17c1.7,0.65,2.75,1.64,2.75,3.61v0.04c0,2.69-2.18,4.03-5.5,4.03h-6.99V33.63z M832.7,39.57
				c1.43,0,2.33-0.46,2.33-1.55v-0.04c0-0.96-0.76-1.51-2.12-1.51h-3.19v3.11H832.7z M833.56,45.49c1.43,0,2.29-0.5,2.29-1.6v-0.04
				c0-0.99-0.74-1.59-2.39-1.59h-3.74v3.23H833.56z"/>
			<path fill="#FFFFFF" d="M859.16,33.53h2.98l6.3,14.8h-3.38l-1.34-3.3h-6.21l-1.34,3.3h-3.3L859.16,33.53z M862.56,42.18
				l-1.95-4.77l-1.95,4.77H862.56z"/>
			<polygon fill="#FFFFFF" points="884.92,42.53 879.28,33.63 883.06,33.63 886.56,39.53 890.13,33.63 893.81,33.63 888.16,42.47
				888.16,48.33 884.92,48.33 			"/>
			<polygon fill="#FFFFFF" points="743.64,58.83 747.12,58.83 750.99,65.05 754.85,58.83 758.33,58.83 758.33,73.53 755.12,73.53
				755.12,63.93 750.99,70.21 750.9,70.21 746.81,64 746.81,73.53 743.64,73.53 			"/>
			<path fill="#FFFFFF" d="M779.3,58.73h2.98l6.3,14.8h-3.38l-1.34-3.3h-6.21l-1.34,3.3H773L779.3,58.73z M782.7,67.38l-1.95-4.77
				l-1.95,4.77H782.7z"/>
			<path fill="#FFFFFF" d="M803.24,58.83h6.72c1.87,0,3.32,0.53,4.28,1.49c0.82,0.82,1.26,1.97,1.26,3.36v0.04
				c0,2.37-1.28,3.86-3.15,4.56l3.59,5.25h-3.78l-3.15-4.7h-2.54v4.7h-3.23V58.83z M809.75,65.97c1.57,0,2.48-0.84,2.48-2.08v-0.04
				c0-1.39-0.97-2.1-2.54-2.1h-3.21v4.22H809.75z"/>
			<rect x="830.96" y="58.83" fill="#FFFFFF" width="3.23" height="14.7"/>
			<polygon fill="#FFFFFF" points="850.25,58.83 853.24,58.83 860.12,67.88 860.12,58.83 863.31,58.83 863.31,73.53 860.56,73.53
				853.45,64.19 853.45,73.53 850.25,73.53 			"/>
			<path fill="#FFFFFF" d="M884.27,58.73h2.98l6.3,14.8h-3.38l-1.34-3.3h-6.21l-1.34,3.3h-3.3L884.27,58.73z M887.68,67.38
				l-1.95-4.77l-1.95,4.77H887.68z"/>
			<path fill="#FFFFFF" d="M921.81,32.33c4.97,0,9,4.03,9,9c0,4.97-4.03,9-9,9s-9-4.03-9-9C912.81,36.36,916.84,32.33,921.81,32.33
				 M921.81,31.33c-5.51,0-10,4.49-10,10c0,5.51,4.49,10,10,10c5.51,0,10-4.49,10-10C931.81,35.81,927.33,31.33,921.81,31.33"/>
		</g>
	</g>
</g>
</svg>
