<?xml version="1.0" encoding="utf-8"?>
<!-- Generator: Adobe Illustrator 16.0.0, SVG Export Plug-In . SVG Version: 6.00 Build 0)  -->
<!DOCTYPE svg PUBLIC "-//W3C//DTD SVG 1.1//EN" "http://www.w3.org/Graphics/SVG/1.1/DTD/svg11.dtd">
<svg version="1.1" id="Layer_1" xmlns="http://www.w3.org/2000/svg" xmlns:xlink="http://www.w3.org/1999/xlink" x="0px" y="0px"
	 width="1091.61px" height="587.61px" viewBox="0 0 1091.61 587.61" enable-background="new 0 0 1091.61 587.61"
	 xml:space="preserve">
<g id="background-image">
	<defs>
		<rect id="SVGID_1_" x="0.39" y="-0.61" width="1091.61" height="587.61"/>
	</defs>
	<clipPath id="SVGID_2_">
		<use xlink:href="#SVGID_1_"  overflow="visible"/>
	</clipPath>
	<g transform="matrix(1 0 0 1 0 0)" clip-path="url(#SVGID_2_)">

			<image overflow="visible" width="4700" height="2530" xlink:href="//melrose.sanchezstudio.co/maps/daufuskie-island.jpg"  transform="matrix(0.2323 0 0 0.2323 0.3872 -0.6128)">
		</image>
	</g>
</g>
<g id="landmarks-daufuskie">
	<g id="atlantic-ocean">
		<path fill="#FFFFFF" d="M614.79,494.27h0.44l7.75,16.21h-0.55l-2.3-4.83h-10.25l-2.3,4.83h-0.53L614.79,494.27z M619.9,505.19
			l-4.9-10.26l-4.9,10.26H619.9z"/>
		<polygon fill="#FFFFFF" points="641.77,494.84 635.96,494.84 635.96,494.38 648.1,494.38 648.1,494.84 642.28,494.84
			642.28,510.48 641.77,510.48 	"/>
		<polygon fill="#FFFFFF" points="664.68,494.38 665.19,494.38 665.19,510.02 675.08,510.02 675.08,510.48 664.68,510.48 	"/>
		<path fill="#FFFFFF" d="M697.89,494.27h0.44l7.75,16.21h-0.55l-2.3-4.83h-10.25l-2.3,4.83h-0.53L697.89,494.27z M703,505.19
			l-4.9-10.26l-4.9,10.26H703z"/>
		<polygon fill="#FFFFFF" points="722.89,494.38 723.33,494.38 735.56,509.65 735.56,494.38 736.05,494.38 736.05,510.48
			735.61,510.48 723.38,495.21 723.38,510.48 722.89,510.48 	"/>
		<polygon fill="#FFFFFF" points="758.45,494.84 752.63,494.84 752.63,494.38 764.78,494.38 764.78,494.84 758.96,494.84
			758.96,510.48 758.45,510.48 	"/>
		<rect x="781.52" y="494.38" fill="#FFFFFF" width="0.51" height="16.1"/>
		<path fill="#FFFFFF" d="M799.83,502.48v-0.05c0-4.53,3.31-8.32,7.91-8.32c3.04,0,4.62,1.13,6.12,2.55l-0.35,0.34
			c-1.29-1.24-2.92-2.44-5.79-2.44c-4.28,0-7.38,3.63-7.38,7.84v0.05c0,4.25,3.15,7.84,7.38,7.84c2.62,0,4.58-1.24,5.86-2.62
			l0.37,0.34c-1.4,1.47-3.43,2.74-6.25,2.74C803.16,510.76,799.83,507.03,799.83,502.48"/>
		<path fill="#FFFFFF" d="M850.11,502.45v-0.05c0-4.39,3.13-8.3,8-8.3s8,3.91,8,8.3v0.05c0,4.39-3.13,8.3-8,8.3
			S850.11,506.85,850.11,502.45 M865.61,502.48v-0.05c0-4.12-3.04-7.86-7.52-7.86c-4.51,0-7.47,3.68-7.47,7.82v0.05
			c0,4.12,3.04,7.86,7.52,7.86C862.64,510.3,865.61,506.62,865.61,502.48"/>
		<path fill="#FFFFFF" d="M883.04,502.48v-0.05c0-4.53,3.31-8.32,7.91-8.32c3.04,0,4.62,1.13,6.12,2.55l-0.35,0.34
			c-1.29-1.24-2.92-2.44-5.79-2.44c-4.28,0-7.38,3.63-7.38,7.84v0.05c0,4.25,3.15,7.84,7.38,7.84c2.62,0,4.58-1.24,5.86-2.62
			l0.37,0.34c-1.4,1.47-3.43,2.74-6.25,2.74C886.38,510.76,883.04,507.03,883.04,502.48"/>
		<polygon fill="#FFFFFF" points="914.02,494.38 925.27,494.38 925.27,494.84 914.53,494.84 914.53,502.15 924.28,502.15
			924.28,502.61 914.53,502.61 914.53,510.02 925.38,510.02 925.38,510.48 914.02,510.48 	"/>
		<path fill="#FFFFFF" d="M949.01,494.27h0.44l7.75,16.21h-0.55l-2.3-4.83h-10.26l-2.3,4.83h-0.53L949.01,494.27z M954.11,505.19
			l-4.9-10.26l-4.9,10.26H954.11z"/>
		<polygon fill="#FFFFFF" points="974.01,494.38 974.44,494.38 986.68,509.65 986.68,494.38 987.16,494.38 987.16,510.48
			986.72,510.48 974.49,495.21 974.49,510.48 974.01,510.48 	"/>
	</g>
	<g id="hilton-head">
		<polygon fill="#FFFFFF" points="706.25,279.35 708.23,279.35 708.23,282.9 711.86,282.9 711.86,279.35 713.83,279.35
			713.83,288.31 711.86,288.31 711.86,284.71 708.23,284.71 708.23,288.31 706.25,288.31 	"/>
		<rect x="723.6" y="279.35" fill="#FFFFFF" width="1.97" height="8.95"/>
		<polygon fill="#FFFFFF" points="735.35,279.35 737.32,279.35 737.32,286.52 741.79,286.52 741.79,288.31 735.35,288.31 	"/>
		<polygon fill="#FFFFFF" points="751.62,281.17 748.89,281.17 748.89,279.35 756.31,279.35 756.31,281.17 753.59,281.17
			753.59,288.31 751.62,288.31 	"/>
		<path fill="#FFFFFF" d="M764.58,283.86v-0.03c0-2.54,2.01-4.63,4.77-4.63c2.76,0,4.75,2.06,4.75,4.6v0.03
			c0,2.55-2.01,4.63-4.77,4.63C766.56,288.46,764.58,286.4,764.58,283.86 M772.04,283.86v-0.03c0-1.54-1.12-2.81-2.71-2.81
			s-2.69,1.25-2.69,2.79v0.03c0,1.53,1.12,2.81,2.71,2.81C770.94,286.64,772.04,285.39,772.04,283.86"/>
		<polygon fill="#FFFFFF" points="783.39,279.35 785.2,279.35 789.4,284.87 789.4,279.35 791.34,279.35 791.34,288.31 789.67,288.31
			785.33,282.62 785.33,288.31 783.39,288.31 	"/>
		<polygon fill="#FFFFFF" points="812.41,279.35 814.38,279.35 814.38,282.9 818.01,282.9 818.01,279.35 819.98,279.35
			819.98,288.31 818.01,288.31 818.01,284.71 814.38,284.71 814.38,288.31 812.41,288.31 	"/>
		<polygon fill="#FFFFFF" points="829.67,279.35 836.42,279.35 836.42,281.11 831.62,281.11 831.62,282.92 835.85,282.92
			835.85,284.67 831.62,284.67 831.62,286.55 836.49,286.55 836.49,288.31 829.67,288.31 	"/>
		<path fill="#FFFFFF" d="M848.85,279.29h1.82l3.84,9.02h-2.06l-0.82-2.01h-3.79l-0.82,2.01h-2.01L848.85,279.29z M850.92,284.56
			l-1.19-2.9l-1.19,2.9H850.92z"/>
		<path fill="#FFFFFF" d="M863.42,279.35h3.49c2.81,0,4.76,1.93,4.76,4.45v0.03c0,2.52-1.94,4.48-4.76,4.48h-3.49V279.35z
			 M866.91,286.53c1.61,0,2.7-1.09,2.7-2.67v-0.03c0-1.59-1.09-2.7-2.7-2.7h-1.52v5.4H866.91z"/>
		<rect x="745.77" y="299.33" fill="#FFFFFF" width="1.97" height="8.95"/>
		<path fill="#FFFFFF" d="M756.91,306.98l1.16-1.39c0.81,0.67,1.65,1.09,2.67,1.09c0.81,0,1.29-0.32,1.29-0.84v-0.03
			c0-0.5-0.31-0.75-1.8-1.14c-1.8-0.46-2.97-0.96-2.97-2.74v-0.03c0-1.62,1.3-2.7,3.13-2.7c1.3,0,2.42,0.41,3.33,1.14l-1.02,1.48
			c-0.79-0.55-1.57-0.88-2.33-0.88c-0.75,0-1.15,0.35-1.15,0.78v0.03c0,0.59,0.38,0.78,1.93,1.18c1.81,0.47,2.84,1.13,2.84,2.69v0.03
			c0,1.78-1.36,2.78-3.29,2.78C759.35,308.41,757.98,307.94,756.91,306.98"/>
		<polygon fill="#FFFFFF" points="773.25,299.33 775.22,299.33 775.22,306.49 779.68,306.49 779.68,308.28 773.25,308.28 	"/>
		<path fill="#FFFFFF" d="M791.78,299.27h1.82l3.84,9.02h-2.06l-0.82-2.01h-3.79l-0.82,2.01h-2.01L791.78,299.27z M793.85,304.54
			l-1.19-2.9l-1.19,2.9H793.85z"/>
		<polygon fill="#FFFFFF" points="806.35,299.33 808.17,299.33 812.36,304.84 812.36,299.33 814.3,299.33 814.3,308.28
			812.63,308.28 808.29,302.59 808.29,308.28 806.35,308.28 	"/>
		<path fill="#FFFFFF" d="M823.99,299.33h3.49c2.81,0,4.76,1.93,4.76,4.45v0.03c0,2.52-1.94,4.48-4.76,4.48h-3.49V299.33z
			 M827.48,306.51c1.61,0,2.7-1.09,2.7-2.67v-0.03c0-1.59-1.09-2.7-2.7-2.7h-1.52v5.4H827.48z"/>
	</g>
	<g id="daufuskie-island">
		<path fill="#FFFFFF" d="M359.22,171.7h3.49c2.81,0,4.76,1.93,4.76,4.45v0.03c0,2.52-1.94,4.48-4.76,4.48h-3.49V171.7z
			 M362.71,178.88c1.61,0,2.7-1.09,2.7-2.67v-0.03c0-1.59-1.09-2.7-2.7-2.7h-1.52v5.4H362.71z"/>
		<path fill="#FFFFFF" d="M379.19,171.64H381l3.84,9.02h-2.06l-0.82-2.01h-3.79l-0.82,2.01h-2.01L379.19,171.64z M381.26,176.91
			l-1.19-2.9l-1.19,2.9H381.26z"/>
		<path fill="#FFFFFF" d="M393.3,176.82v-5.12h1.97v5.06c0,1.46,0.73,2.21,1.93,2.21c1.2,0,1.93-0.73,1.93-2.15v-5.13h1.97v5.05
			c0,2.71-1.52,4.04-3.93,4.04C394.77,180.8,393.3,179.45,393.3,176.82"/>
		<polygon fill="#FFFFFF" points="410.65,171.7 417.47,171.7 417.47,173.49 412.62,173.49 412.62,175.4 416.89,175.4 416.89,177.19
			412.62,177.19 412.62,180.66 410.65,180.66 	"/>
		<path fill="#FFFFFF" d="M426.44,176.82v-5.12h1.97v5.06c0,1.46,0.73,2.21,1.93,2.21c1.2,0,1.93-0.73,1.93-2.15v-5.13h1.97v5.05
			c0,2.71-1.52,4.04-3.93,4.04C427.91,180.8,426.44,179.45,426.44,176.82"/>
		<path fill="#FFFFFF" d="M443.17,179.35l1.16-1.39c0.81,0.67,1.65,1.09,2.67,1.09c0.81,0,1.29-0.32,1.29-0.84v-0.03
			c0-0.5-0.31-0.75-1.8-1.14c-1.8-0.46-2.97-0.96-2.97-2.74v-0.03c0-1.62,1.3-2.7,3.13-2.7c1.31,0,2.42,0.41,3.33,1.14l-1.02,1.48
			c-0.79-0.55-1.57-0.88-2.33-0.88c-0.75,0-1.15,0.34-1.15,0.78v0.03c0,0.59,0.38,0.78,1.93,1.18c1.82,0.47,2.84,1.13,2.84,2.69v0.03
			c0,1.78-1.35,2.78-3.29,2.78C445.62,180.78,444.25,180.31,443.17,179.35"/>
		<polygon fill="#FFFFFF" points="459.51,171.7 461.48,171.7 461.48,175.62 465.12,171.7 467.49,171.7 463.85,175.5 467.66,180.66
			465.29,180.66 462.52,176.84 461.48,177.92 461.48,180.66 459.51,180.66 	"/>
		<rect x="476.48" y="171.7" fill="#FFFFFF" width="1.97" height="8.95"/>
		<polygon fill="#FFFFFF" points="488.23,171.7 494.98,171.7 494.98,173.45 490.19,173.45 490.19,175.27 494.41,175.27
			494.41,177.02 490.19,177.02 490.19,178.9 495.05,178.9 495.05,180.66 488.23,180.66 	"/>
		<rect x="383.94" y="191.68" fill="#FFFFFF" width="1.97" height="8.95"/>
		<path fill="#FFFFFF" d="M395.08,199.33l1.16-1.39c0.81,0.67,1.65,1.09,2.67,1.09c0.81,0,1.29-0.32,1.29-0.84v-0.03
			c0-0.5-0.31-0.75-1.8-1.14c-1.8-0.46-2.97-0.96-2.97-2.74v-0.03c0-1.62,1.31-2.7,3.13-2.7c1.31,0,2.42,0.41,3.33,1.14l-1.02,1.48
			c-0.79-0.55-1.57-0.88-2.33-0.88c-0.75,0-1.15,0.34-1.15,0.78v0.02c0,0.59,0.38,0.78,1.93,1.18c1.81,0.47,2.84,1.13,2.84,2.69v0.03
			c0,1.78-1.35,2.78-3.29,2.78C397.52,200.76,396.15,200.29,395.08,199.33"/>
		<polygon fill="#FFFFFF" points="411.42,191.68 413.39,191.68 413.39,198.84 417.85,198.84 417.85,200.63 411.42,200.63 	"/>
		<path fill="#FFFFFF" d="M429.94,191.61h1.82l3.84,9.02h-2.06l-0.82-2.01h-3.78l-0.82,2.01h-2.01L429.94,191.61z M432.02,196.88
			l-1.19-2.9l-1.19,2.9H432.02z"/>
		<polygon fill="#FFFFFF" points="444.52,191.68 446.33,191.68 450.53,197.19 450.53,191.68 452.47,191.68 452.47,200.63
			450.8,200.63 446.46,194.94 446.46,200.63 444.52,200.63 	"/>
		<path fill="#FFFFFF" d="M462.16,191.68h3.49c2.81,0,4.76,1.93,4.76,4.45v0.03c0,2.52-1.94,4.48-4.76,4.48h-3.49V191.68z
			 M465.65,198.85c1.61,0,2.7-1.09,2.7-2.67v-0.03c0-1.59-1.09-2.7-2.7-2.7h-1.52v5.4H465.65z"/>
	</g>
	<g id="palmetto-bluff">
		<path fill="#FFFFFF" d="M48.29,37.66h3.66c2.14,0,3.43,1.26,3.43,3.09v0.03c0,2.07-1.61,3.15-3.62,3.15h-1.5v2.69h-1.97V37.66z
			 M51.82,42.18c0.98,0,1.56-0.59,1.56-1.35V40.8c0-0.88-0.61-1.36-1.6-1.36h-1.52v2.74H51.82z"/>
		<path fill="#FFFFFF" d="M66.55,37.6h1.82l3.84,9.02h-2.06l-0.82-2.01h-3.79l-0.82,2.01h-2.01L66.55,37.6z M68.62,42.87l-1.19-2.9
			l-1.19,2.9H68.62z"/>
		<polygon fill="#FFFFFF" points="81.12,37.66 83.09,37.66 83.09,44.83 87.56,44.83 87.56,46.62 81.12,46.62 	"/>
		<polygon fill="#FFFFFF" points="96.58,37.66 98.7,37.66 101.06,41.45 103.41,37.66 105.53,37.66 105.53,46.62 103.58,46.62
			103.58,40.77 101.06,44.6 101.01,44.6 98.51,40.81 98.51,46.62 96.58,46.62 	"/>
		<polygon fill="#FFFFFF" points="115.22,37.66 121.98,37.66 121.98,39.42 117.18,39.42 117.18,41.23 121.4,41.23 121.4,42.98
			117.18,42.98 117.18,44.86 122.04,44.86 122.04,46.62 115.22,46.62 	"/>
		<polygon fill="#FFFFFF" points="133.42,39.48 130.69,39.48 130.69,37.66 138.11,37.66 138.11,39.48 135.39,39.48 135.39,46.62
			133.42,46.62 	"/>
		<polygon fill="#FFFFFF" points="149.24,39.48 146.52,39.48 146.52,37.66 153.94,37.66 153.94,39.48 151.21,39.48 151.21,46.62
			149.24,46.62 	"/>
		<path fill="#FFFFFF" d="M162.21,42.17v-0.03c0-2.54,2.01-4.63,4.77-4.63c2.76,0,4.75,2.06,4.75,4.6v0.03
			c0,2.55-2.01,4.63-4.77,4.63C164.19,46.77,162.21,44.71,162.21,42.17 M169.66,42.17v-0.03c0-1.54-1.12-2.81-2.71-2.81
			s-2.69,1.25-2.69,2.79v0.03c0,1.53,1.12,2.81,2.71,2.81C168.56,44.95,169.66,43.7,169.66,42.17"/>
		<path fill="#FFFFFF" d="M74.13,57.64h4.16c1.02,0,1.83,0.28,2.34,0.79c0.41,0.41,0.61,0.91,0.61,1.52v0.02
			c0,1.01-0.54,1.57-1.18,1.93c1.04,0.4,1.68,1,1.68,2.2v0.03c0,1.64-1.33,2.46-3.35,2.46h-4.26V57.64z M77.87,61.26
			c0.87,0,1.42-0.28,1.42-0.95v-0.03c0-0.59-0.46-0.92-1.29-0.92h-1.94v1.89H77.87z M78.39,64.87c0.87,0,1.39-0.31,1.39-0.97v-0.03
			c0-0.6-0.45-0.97-1.46-0.97h-2.28v1.97H78.39z"/>
		<polygon fill="#FFFFFF" points="90.91,57.64 92.88,57.64 92.88,64.8 97.34,64.8 97.34,66.59 90.91,66.59 	"/>
		<path fill="#FFFFFF" d="M105.97,62.76v-5.12h1.97v5.06c0,1.46,0.73,2.21,1.93,2.21c1.2,0,1.93-0.73,1.93-2.15v-5.13h1.97v5.05
			c0,2.71-1.52,4.04-3.93,4.04C107.44,66.73,105.97,65.39,105.97,62.76"/>
		<polygon fill="#FFFFFF" points="123.32,57.64 130.13,57.64 130.13,59.43 125.29,59.43 125.29,61.34 129.56,61.34 129.56,63.13
			125.29,63.13 125.29,66.59 123.32,66.59 	"/>
		<polygon fill="#FFFFFF" points="139.25,57.64 146.06,57.64 146.06,59.43 141.22,59.43 141.22,61.34 145.49,61.34 145.49,63.13
			141.22,63.13 141.22,66.59 139.25,66.59 	"/>
	</g>
	<g id="daufuskie-marina" class="melrose-hover-green">
		<path fill="#FFFFFF" d="M81.05,235.05c0-2.76-2.24-5-5-5s-5,2.24-5,5c0,2.76,2.24,5,5,5S81.05,237.81,81.05,235.05"/>
		<path fill="#FFFFFF" d="M98.72,228.25h5.19c4.18,0,7.07,2.87,7.07,6.61v0.04c0,3.74-2.89,6.65-7.07,6.65h-5.19V228.25z
			 M103.9,238.91c2.39,0,4.01-1.62,4.01-3.97v-0.04c0-2.36-1.61-4.01-4.01-4.01h-2.26v8.02H103.9z"/>
		<path fill="#FFFFFF" d="M125.74,228.16h2.7l5.7,13.39h-3.06l-1.22-2.98h-5.62l-1.22,2.98h-2.98L125.74,228.16z M128.81,235.99
			l-1.77-4.31l-1.77,4.31H128.81z"/>
		<path fill="#FFFFFF" d="M144.05,235.85v-7.6h2.93v7.52c0,2.17,1.08,3.29,2.87,3.29c1.79,0,2.87-1.08,2.87-3.19v-7.62h2.93v7.5
			c0,4.03-2.26,6-5.83,6C146.24,241.76,144.05,239.77,144.05,235.85"/>
		<polygon fill="#FFFFFF" points="167.18,228.25 177.3,228.25 177.3,230.91 170.1,230.91 170.1,233.74 176.45,233.74 176.45,236.4
			170.1,236.4 170.1,241.55 167.18,241.55 	"/>
		<path fill="#FFFFFF" d="M187.98,235.85v-7.6h2.93v7.52c0,2.17,1.08,3.29,2.87,3.29c1.79,0,2.87-1.08,2.87-3.19v-7.62h2.92v7.5
			c0,4.03-2.26,6-5.83,6C190.17,241.76,187.98,239.77,187.98,235.85"/>
		<path fill="#FFFFFF" d="M210.19,239.61l1.73-2.07c1.2,0.99,2.45,1.61,3.97,1.61c1.2,0,1.92-0.48,1.92-1.25v-0.04
			c0-0.74-0.46-1.12-2.68-1.69c-2.68-0.69-4.41-1.42-4.41-4.07v-0.04c0-2.41,1.94-4.01,4.65-4.01c1.94,0,3.59,0.61,4.94,1.69
			l-1.52,2.2c-1.18-0.82-2.34-1.31-3.46-1.31c-1.12,0-1.71,0.51-1.71,1.16v0.04c0,0.87,0.57,1.16,2.87,1.75
			c2.7,0.7,4.22,1.67,4.22,3.99v0.04c0,2.64-2.01,4.12-4.88,4.12C213.82,241.74,211.79,241.04,210.19,239.61"/>
		<polygon fill="#FFFFFF" points="231.81,228.25 234.74,228.25 234.74,234.07 240.13,228.25 243.67,228.25 238.25,233.9
			243.92,241.55 240.4,241.55 236.28,235.89 234.74,237.49 234.74,241.55 231.81,241.55 	"/>
		<rect x="254.37" y="228.25" fill="#FFFFFF" width="2.93" height="13.3"/>
		<polygon fill="#FFFFFF" points="269.17,228.25 279.2,228.25 279.2,230.86 272.07,230.86 272.07,233.55 278.34,233.55
			278.34,236.16 272.07,236.16 272.07,238.95 279.29,238.95 279.29,241.55 269.17,241.55 	"/>
		<polygon fill="#FFFFFF" points="98.72,254.25 101.87,254.25 105.37,259.88 108.86,254.25 112.02,254.25 112.02,267.55
			109.11,267.55 109.11,258.87 105.37,264.55 105.29,264.55 101.59,258.93 101.59,267.55 98.72,267.55 	"/>
		<path fill="#FFFFFF" d="M128.32,254.16h2.7l5.7,13.39h-3.06l-1.22-2.98h-5.62l-1.22,2.98h-2.98L128.32,254.16z M131.4,261.99
			l-1.77-4.31l-1.77,4.31H131.4z"/>
		<path fill="#FFFFFF" d="M147.32,254.25h6.08c1.69,0,3,0.48,3.88,1.35c0.74,0.74,1.14,1.78,1.14,3.04v0.04
			c0,2.15-1.16,3.5-2.85,4.12l3.25,4.75h-3.42l-2.85-4.26h-2.3v4.26h-2.93V254.25z M153.21,260.71c1.43,0,2.24-0.76,2.24-1.88v-0.04
			c0-1.25-0.87-1.9-2.3-1.9h-2.91v3.82H153.21z"/>
		<rect x="169.74" y="254.25" fill="#FFFFFF" width="2.93" height="13.3"/>
		<polygon fill="#FFFFFF" points="184.54,254.25 187.24,254.25 193.47,262.44 193.47,254.25 196.36,254.25 196.36,267.55
			193.87,267.55 187.43,259.1 187.43,267.55 184.54,267.55 	"/>
		<path fill="#FFFFFF" d="M212.66,254.16h2.7l5.7,13.39H218l-1.22-2.98h-5.62l-1.22,2.98h-2.98L212.66,254.16z M215.74,261.99
			l-1.77-4.31l-1.77,4.31H215.74z"/>
	</g>
	<g id="melrose-resort" class="melrose-hover-green">
		<path fill="#FFFFFF" d="M355.57,398.55c0-2.76-2.24-5-5-5c-2.76,0-5,2.24-5,5s2.24,5,5,5
			C353.33,403.55,355.57,401.31,355.57,398.55"/>
		<polygon fill="#FFFFFF" points="374.7,392.75 377.85,392.75 381.35,398.37 384.85,392.75 388,392.75 388,406.05 385.09,406.05
			385.09,397.36 381.35,403.05 381.27,403.05 377.57,397.42 377.57,406.05 374.7,406.05 	"/>
		<polygon fill="#FFFFFF" points="399.74,392.75 409.77,392.75 409.77,395.35 402.65,395.35 402.65,398.05 408.92,398.05
			408.92,400.65 402.65,400.65 402.65,403.44 409.87,403.44 409.87,406.05 399.74,406.05 	"/>
		<polygon fill="#FFFFFF" points="421.02,392.75 423.95,392.75 423.95,403.39 430.58,403.39 430.58,406.05 421.02,406.05 	"/>
		<path fill="#FFFFFF" d="M441.33,392.75h6.08c1.69,0,3,0.48,3.88,1.35c0.74,0.74,1.14,1.79,1.14,3.04v0.04
			c0,2.15-1.16,3.5-2.85,4.12l3.25,4.75h-3.42l-2.85-4.26h-2.3v4.26h-2.93V392.75z M447.22,399.21c1.43,0,2.24-0.76,2.24-1.88v-0.04
			c0-1.25-0.87-1.9-2.3-1.9h-2.91v3.82H447.22z"/>
		<path fill="#FFFFFF" d="M463.03,399.44v-0.04c0-3.78,2.98-6.88,7.09-6.88c4.1,0,7.05,3.06,7.05,6.84v0.04
			c0,3.78-2.98,6.88-7.09,6.88C465.98,406.27,463.03,403.22,463.03,399.44 M474.11,399.44v-0.04c0-2.28-1.67-4.18-4.03-4.18
			c-2.36,0-3.99,1.86-3.99,4.14v0.04c0,2.28,1.67,4.18,4.03,4.18C472.47,403.58,474.11,401.72,474.11,399.44"/>
		<path fill="#FFFFFF" d="M487.31,404.11l1.73-2.07c1.2,0.99,2.45,1.62,3.97,1.62c1.2,0,1.92-0.48,1.92-1.25v-0.04
			c0-0.74-0.46-1.12-2.68-1.69c-2.68-0.68-4.41-1.42-4.41-4.07v-0.04c0-2.41,1.94-4.01,4.65-4.01c1.94,0,3.59,0.61,4.94,1.69
			l-1.52,2.2c-1.18-0.82-2.34-1.31-3.46-1.31c-1.12,0-1.71,0.51-1.71,1.16v0.04c0,0.87,0.57,1.16,2.87,1.75
			c2.7,0.7,4.22,1.67,4.22,3.99v0.04c0,2.64-2.01,4.12-4.88,4.12C490.94,406.24,488.91,405.53,487.31,404.11"/>
		<polygon fill="#FFFFFF" points="508.94,392.75 518.97,392.75 518.97,395.35 511.84,395.35 511.84,398.05 518.11,398.05
			518.11,400.65 511.84,400.65 511.84,403.44 519.06,403.44 519.06,406.05 508.94,406.05 	"/>
		<path fill="#FFFFFF" d="M374.7,418.75h6.08c1.69,0,3,0.47,3.88,1.35c0.74,0.74,1.14,1.79,1.14,3.04v0.04c0,2.15-1.16,3.5-2.85,4.12
			l3.25,4.75h-3.42l-2.85-4.26h-2.3v4.26h-2.93V418.75z M380.59,425.21c1.43,0,2.24-0.76,2.24-1.88v-0.04c0-1.25-0.87-1.9-2.3-1.9
			h-2.91v3.82H380.59z"/>
		<polygon fill="#FFFFFF" points="396.99,418.75 407.02,418.75 407.02,421.35 399.89,421.35 399.89,424.05 406.16,424.05
			406.16,426.65 399.89,426.65 399.89,429.44 407.11,429.44 407.11,432.05 396.99,432.05 	"/>
		<path fill="#FFFFFF" d="M417.35,430.11l1.73-2.07c1.2,0.99,2.45,1.62,3.97,1.62c1.2,0,1.92-0.48,1.92-1.25v-0.04
			c0-0.74-0.46-1.12-2.68-1.69c-2.68-0.69-4.41-1.43-4.41-4.07v-0.04c0-2.41,1.94-4.01,4.65-4.01c1.94,0,3.59,0.61,4.94,1.69
			l-1.52,2.2c-1.18-0.82-2.34-1.31-3.46-1.31c-1.12,0-1.71,0.51-1.71,1.16v0.04c0,0.88,0.57,1.16,2.87,1.75
			c2.7,0.7,4.22,1.67,4.22,3.99v0.04c0,2.64-2.01,4.12-4.88,4.12C420.98,432.24,418.95,431.53,417.35,430.11"/>
		<path fill="#FFFFFF" d="M438.39,425.44v-0.04c0-3.78,2.98-6.88,7.09-6.88c4.1,0,7.05,3.06,7.05,6.84v0.04
			c0,3.78-2.98,6.88-7.09,6.88C441.33,432.27,438.39,429.22,438.39,425.44 M449.46,425.44v-0.04c0-2.28-1.67-4.18-4.03-4.18
			c-2.36,0-3.99,1.86-3.99,4.14v0.04c0,2.28,1.67,4.18,4.03,4.18C447.83,429.58,449.46,427.72,449.46,425.44"/>
		<path fill="#FFFFFF" d="M463.68,418.75h6.08c1.69,0,3,0.47,3.88,1.35c0.74,0.74,1.14,1.79,1.14,3.04v0.04
			c0,2.15-1.16,3.5-2.85,4.12l3.25,4.75h-3.42l-2.85-4.26h-2.3v4.26h-2.93V418.75z M469.57,425.21c1.43,0,2.24-0.76,2.24-1.88v-0.04
			c0-1.25-0.87-1.9-2.3-1.9h-2.91v3.82H469.57z"/>
		<polygon fill="#FFFFFF" points="489.06,421.45 485.01,421.45 485.01,418.75 496.03,418.75 496.03,421.45 491.99,421.45
			491.99,432.05 489.06,432.05 	"/>
	</g>
	<g id="palmetto-bay-marina" class="melrose-hover-green">
		<path fill="#FFFFFF" d="M927.2,40.72c0-2.76-2.24-5-5-5s-5,2.24-5,5c0,2.76,2.24,5,5,5S927.2,43.48,927.2,40.72"/>
		<path fill="#FFFFFF" d="M654.21,33.71h5.43c3.17,0,5.09,1.88,5.09,4.6v0.04c0,3.08-2.39,4.67-5.38,4.67h-2.22v3.99h-2.93V33.71z
			 M659.45,40.41c1.46,0,2.32-0.87,2.32-2.01v-0.04c0-1.31-0.91-2.01-2.37-2.01h-2.26v4.06H659.45z"/>
		<path fill="#FFFFFF" d="M678.68,33.61h2.7l5.7,13.39h-3.06l-1.22-2.98h-5.62l-1.22,2.98h-2.98L678.68,33.61z M681.76,41.44
			l-1.77-4.31l-1.77,4.31H681.76z"/>
		<polygon fill="#FFFFFF" points="697.68,33.71 700.61,33.71 700.61,44.35 707.24,44.35 707.24,47.01 697.68,47.01 	"/>
		<polygon fill="#FFFFFF" points="717.99,33.71 721.14,33.71 724.64,39.33 728.14,33.71 731.29,33.71 731.29,47.01 728.38,47.01
			728.38,38.32 724.64,44 724.56,44 720.86,38.38 720.86,47.01 717.99,47.01 	"/>
		<polygon fill="#FFFFFF" points="743.03,33.71 753.06,33.71 753.06,36.31 745.94,36.31 745.94,39.01 752.21,39.01 752.21,41.61
			745.94,41.61 745.94,44.4 753.16,44.4 753.16,47.01 743.03,47.01 	"/>
		<polygon fill="#FFFFFF" points="767.41,36.41 763.36,36.41 763.36,33.71 774.38,33.71 774.38,36.41 770.33,36.41 770.33,47.01
			767.41,47.01 	"/>
		<polygon fill="#FFFFFF" points="788.27,36.41 784.22,36.41 784.22,33.71 795.24,33.71 795.24,36.41 791.2,36.41 791.2,47.01
			788.27,47.01 	"/>
		<path fill="#FFFFFF" d="M804.88,40.4v-0.04c0-3.78,2.98-6.88,7.09-6.88c4.1,0,7.05,3.06,7.05,6.84v0.04c0,3.78-2.98,6.88-7.09,6.88
			C807.82,47.23,804.88,44.18,804.88,40.4 M815.95,40.4v-0.04c0-2.28-1.67-4.18-4.03-4.18c-2.36,0-3.99,1.86-3.99,4.14v0.04
			c0,2.28,1.67,4.18,4.03,4.18C814.32,44.54,815.95,42.67,815.95,40.4"/>
		<path fill="#FFFFFF" d="M844.42,33.71h6.17c1.52,0,2.72,0.42,3.48,1.18c0.61,0.61,0.91,1.35,0.91,2.26v0.04
			c0,1.5-0.8,2.34-1.75,2.87c1.54,0.59,2.49,1.48,2.49,3.27v0.04c0,2.43-1.98,3.65-4.98,3.65h-6.33V33.71z M849.96,39.08
			c1.29,0,2.11-0.42,2.11-1.41v-0.04c0-0.87-0.68-1.37-1.92-1.37h-2.89v2.81H849.96z M850.74,44.44c1.29,0,2.07-0.46,2.07-1.44v-0.04
			c0-0.89-0.67-1.44-2.17-1.44h-3.38v2.93H850.74z"/>
		<path fill="#FFFFFF" d="M871.24,33.61h2.7l5.7,13.39h-3.06l-1.22-2.98h-5.62l-1.22,2.98h-2.98L871.24,33.61z M874.32,41.44
			l-1.77-4.31l-1.77,4.31H874.32z"/>
		<polygon fill="#FFFFFF" points="891.9,41.76 886.79,33.71 890.21,33.71 893.38,39.05 896.61,33.71 899.93,33.71 894.82,41.71
			894.82,47.01 891.9,47.01 	"/>
		<polygon fill="#FFFFFF" points="777.37,59.71 780.52,59.71 784.01,65.33 787.51,59.71 790.66,59.71 790.66,73.01 787.76,73.01
			787.76,64.32 784.01,70 783.94,70 780.23,64.38 780.23,73.01 777.37,73.01 	"/>
		<path fill="#FFFFFF" d="M806.97,59.61h2.7l5.7,13.39h-3.06l-1.22-2.98h-5.62l-1.22,2.98h-2.98L806.97,59.61z M810.04,67.44
			l-1.77-4.31l-1.77,4.31H810.04z"/>
		<path fill="#FFFFFF" d="M825.97,59.71h6.08c1.69,0,3,0.48,3.88,1.35c0.74,0.74,1.14,1.79,1.14,3.04v0.04c0,2.15-1.16,3.5-2.85,4.12
			l3.25,4.75h-3.42l-2.85-4.26h-2.3v4.26h-2.93V59.71z M831.86,66.17c1.42,0,2.24-0.76,2.24-1.88v-0.04c0-1.25-0.87-1.9-2.3-1.9
			h-2.91v3.82H831.86z"/>
		<rect x="848.39" y="59.71" fill="#FFFFFF" width="2.93" height="13.3"/>
		<polygon fill="#FFFFFF" points="863.19,59.71 865.88,59.71 872.12,67.9 872.12,59.71 875,59.71 875,73.01 872.52,73.01
			866.08,64.55 866.08,73.01 863.19,73.01 	"/>
		<path fill="#FFFFFF" d="M891.31,59.61h2.7l5.7,13.39h-3.06l-1.22-2.98h-5.62l-1.22,2.98h-2.98L891.31,59.61z M894.39,67.44
			l-1.77-4.31l-1.77,4.31H894.39z"/>
	</g>
</g>
</svg>
