<?xml version="1.0" encoding="utf-8"?>
<!-- Generator: Adobe Illustrator 16.0.4, SVG Export Plug-In . SVG Version: 6.00 Build 0)  -->
<!DOCTYPE svg PUBLIC "-//W3C//DTD SVG 1.1//EN" "http://www.w3.org/Graphics/SVG/1.1/DTD/svg11.dtd">
<svg version="1.1" id="Layer_1" xmlns="http://www.w3.org/2000/svg" xmlns:xlink="http://www.w3.org/1999/xlink" x="0px" y="0px"
	 width="1060px" height="707.77px" viewBox="0 0 1060 707.77" enable-background="new 0 0 1060 707.77" xml:space="preserve">
<image overflow="visible" width="4445" height="2968" id="background-image" xlink:href="//melrose.sanchezstudio.co/maps/melrose-resort.jpg"  transform="matrix(0.2385 0 0 0.2385 0 0)">
</image>
<g id="landmarks-melrose">
	<path id="enclave" opacity="0.6" fill="#FFFFFF" d="M64.9,155.1c0,0,49.5,4.99,68.5-4c19-8.99,72.5-3.5,72.5-3.5
		s5,19.98,28.5,19.98c0,0,12-2.5,15,57.44c0,0-3,13.49,4,19.48c0,0,9.5,30.47,8.5,49.95c0,0,2.5,8.99,5.5,16.48
		c0,0-12,12.99-12.5,23.97s-18,16.48-18,16.48l-4.5-3.5c0,0-84.5-3.5-83.5,3.5l3.5,24.47l-28,29.97l-28.5,4.5L64.9,155.1z"/>
	<path id="beach-villas" opacity="0.6" fill="#FFFFFF" d="M851.39,354.27l-4.5,24.84c0,0,8.25,1,4.5,11.49l14,25.47
		c0,0,108-33.71,112-40.96c0,0,2-4.75-5.5-5.74l-1.5,2.5c0,0-81.13-19.96-89.63-18.09l-27.87-10.13L851.39,354.27z"/>
	<g id="residence-club" opacity="0.6">
		<path fill="#FFFFFF" d="M758.64,402.83c0,0,8,0.25,15,2.5c0,0,11-2.75,12-4c1-1.25-11.25-18.73-11.25-18.73s-3.5,4-8.25,2.75
			c-4.75-1.25-12.75,7.24-12.75,7.24L758.64,402.83z"/>
		<path fill="#FFFFFF" d="M804.64,375.11l-10.5-6.24c0,0,2.5-11.46,21.75-14.6c0,0,15-0.64,23.75,6.61l-3.25,10.74
			C836.39,371.62,815.89,359.63,804.64,375.11"/>
	</g>
	<polygon id="beach-cottages" opacity="0.6" fill="#FFFFFF" points="561.58,424.66 550.24,451.44 569.32,489.93 581.11,486.45
		596.63,521.67 706.89,471.98 695.15,448.18 697.65,447.85 689.16,427.53 698.01,427.53 698.01,414.55 	"/>
	<path id="tennis-villas" opacity="0.6" fill="#FFFFFF" d="M510.89,453.24c0,0,4.58-8.77-2.48-14.87s-46.39-4.2-54.21-12.59
		c-7.83-8.39-26.15-12.2-26.15-12.2s-29.59-2.1-19.66,34.51c0,0,0.95,26.12,24.82,26.31c0,0,11.65,3.62,12.41,6.48
		c0.76,2.86,16.04,3.05,16.04,3.05s24.44,0.19,32.45-4.96C502.11,473.83,510.89,453.24,510.89,453.24"/>
	<path id="the-inn" opacity="0.6" fill="#FFFFFF" d="M413.65,512.94l2.62,3.5l-1.12,10.99h4.25l28,60.43l10-1.75l59-12.11
		c0,0,18.5,6.93,19.5,21.91c0,0,7,11.46,17-2.03c0,0,5.5-9.5,5.5-18c0-8.49,32-30.97,32-30.97l49-33.97l-46,12.48l-14.5-33.96
		l-12.5,2.5l-8-18.48l-6-13.48c0,0-7-8.99-11-11.49c-4-2.5-14.88,9.99-14.88,9.99s-2.12,5.71-6.62,9.6
		c-4.5,3.89-5.75,3.39-8.25,9.63c0,0,1.5,7.99-6.25,7.99s-8.25,6.99-8.25,6.99s-7.5,4.25-10,2c-2.5-2.25-14.75,1.5-14.75,1.5
		s-2.5,1.75-1.5,4c1,2.25,1.25,3.5-0.25,5.99s2.75,11.49,2.75,11.49s3.25,12.74-7,15.48s-14.75-3.5-14.75-3.5s-2.5-4.81-7.5-6.03
		c-5-1.22-15.75-2.72-15.75-2.72s-3.5-0.56-6.25,2.72c0,0-3.25-2.72-2.5-6.46C420.4,513.44,413.65,512.94,413.65,512.94"/>
</g>
</svg>
