<?xml version="1.0" encoding="utf-8"?>
<!-- Generator: Adobe Illustrator 16.0.0, SVG Export Plug-In . SVG Version: 6.00 Build 0)  -->
<!DOCTYPE svg PUBLIC "-//W3C//DTD SVG 1.1//EN" "http://www.w3.org/Graphics/SVG/1.1/DTD/svg11.dtd">
<svg version="1.1" id="melrose-resort" xmlns="http://www.w3.org/2000/svg" xmlns:xlink="http://www.w3.org/1999/xlink" x="0px"
	 y="0px" width="1104.59px" height="703.2px" viewBox="0 0 1104.59 703.2" enable-background="new 0 0 1104.59 703.2"
	 xml:space="preserve">
<g id="background-image">
	<defs>
		<rect id="SVGID_1_" x="-0.42" y="-2.14" width="1105.07" height="705.14"/>
	</defs>
	<clipPath id="SVGID_2_">
		<use xlink:href="#SVGID_1_"  overflow="visible"/>
	</clipPath>
	<g transform="matrix(1 0 0 1 0 2.384186e-07)" clip-path="url(#SVGID_2_)">

			<image overflow="visible" width="4620" height="2948" xlink:href="//melrose.sanchezstudio.co/maps/melrose-resort.jpg"  transform="matrix(0.2392 0 0 0.2392 -0.415 -2.1382)">
		</image>
	</g>
</g>
<g id="landmarks-melrose">
	<g id="the-enclave">
		<path fill="#FFFFFF" d="M110.89,153.27c0,0,49.5,5,68.5-4s72.5-3.5,72.5-3.5s5,20,28.5,20c0,0,12-2.5,15,57.5
			c0,0-3,13.5,4,19.5c0,0,9.5,30.5,8.5,50c0,0,2.5,9,5.5,16.5c0,0-12,13-12.5,24s-18,16.5-18,16.5l-4.5-3.5c0,0-84.5-3.5-83.5,3.5
			l3.5,24.5l-28,30l-28.5,4.5L110.89,153.27z"/>
	</g>
	<g id="tennis-villas">
		<path fill="#FFFFFF" d="M556.88,451.74c0,0,4.58-8.78-2.48-14.89c-7.06-6.11-46.39-4.2-54.21-12.6
			c-7.83-8.4-26.15-12.22-26.15-12.22s-29.59-2.1-19.66,34.55c0,0,0.95,26.15,24.82,26.34c0,0,11.65,3.63,12.41,6.49
			c0.76,2.86,16.04,3.05,16.04,3.05s24.44,0.19,32.45-4.96C548.1,472.35,556.88,451.74,556.88,451.74"/>
	</g>
	<g id="residence-club">
		<path fill="#FFFFFF" d="M804.63,401.27c0,0,8,0.25,15,2.5c0,0,11-2.75,12-4s-11.25-18.75-11.25-18.75s-3.5,4-8.25,2.75
			s-12.75,7.25-12.75,7.25L804.63,401.27z"/>
		<path fill="#FFFFFF" d="M850.63,373.52l-10.5-6.25c0,0,2.5-11.48,21.75-14.61c0,0,15-0.64,23.75,6.61l-3.25,10.75
			C882.38,370.02,861.88,358.02,850.63,373.52"/>
	</g>
	<g id="beach-club">
		<path fill="#FFFFFF" d="M897.38,352.66l-4.5,24.86c0,0,8.25,1,4.5,11.5l14,25.5c0,0,108-33.75,112-41
			c0,0,2-4.75-5.5-5.75l-1.5,2.5c0,0-81.13-19.99-89.63-18.11l-27.87-10.14L897.38,352.66z"/>
	</g>
	<g id="the-inn">
		<path fill="#FFFFFF" d="M459.65,511.5l2.62,3.5l-1.12,11h4.25l28,60.5l10-1.75l59-12.12c0,0,18.5,6.94,19.5,21.94
			c0,0,7,11.47,17-2.03c0,0,5.5-9.52,5.5-18.02s32-31.01,32-31.01l49-34l-46,12.5l-14.5-34l-12.5,2.5l-8-18.5l-6-13.5
			c0,0-7-9-11-11.5s-14.88,10-14.88,10s-2.12,5.71-6.62,9.61c-4.5,3.89-5.75,3.39-8.25,9.64c0,0,1.5,8-6.25,8c-7.75,0-8.25,7-8.25,7
			s-7.5,4.25-10,2s-14.75,1.5-14.75,1.5s-2.5,1.75-1.5,4s1.25,3.5-0.25,6s2.75,11.5,2.75,11.5s3.25,12.75-7,15.5
			s-14.75-3.5-14.75-3.5s-2.5-4.81-7.5-6.03s-15.75-2.72-15.75-2.72s-3.5-0.56-6.25,2.72c0,0-3.25-2.72-2.5-6.47
			S459.65,511.5,459.65,511.5"/>
	</g>
	<g id="beach-cottages" >
		<polygon fill="#FFFFFF" points="607.57,423.12 596.23,449.94 615.31,488.47 627.1,484.98 642.62,520.24
			752.88,470.5 741.14,446.67 743.64,446.34 735.15,426 744,426 744,413 	"/>
	</g>
	<g id="future-development-commercial" >
		<path fill="#FFFFFF" d="M104.72,3.74c0,0-9.52,3.04-10.57,16.11
			c-1.05,13.07,3.08,65.27,3.08,65.27l13.66,2.08l3.53-2.62l7.79,3.61l31.93-8.84l10.45,1.57l6.27-3.66l15.16-1.05l10.98-2.61
			l7.32,1.05l4.18-1.57l6.8,0.52l6.8-1.04l10.46-1.57l18.82-3.14l8.89,2.09l9.93-2.61l10.46,2.28L310.98,63h15.61l5.3-2.98
			l10.46-3.66l2.61,23l142.19-5.75c0,0,14.11,0,32.93,5.23c18.82,5.23,38.68,4.7,38.68,4.7s15.68,1.05,23.52,9.93
			c0,0,11.5-8.89,25.61-6.8c0,0,0-5.75,5.75-5.75c5.75,0,4.71,7.84,4.71,7.84s7.84-3.14,17.77,11.5l14.11-10.98l-28.23-59.07
			l-470.46,1.05C151.54,31.26,131.68,31.79,104.72,3.74"/>
	</g>
	<g id="future-development-residential">
		<polygon fill="#FFFFFF" points="225.41,72.25 227.69,98.35 222.85,112.59 224.85,140.45 268.77,135.46 267.56,109.75 366,103
			366,88.83 358.95,89.85 352.69,86 352.58,79.05 345.11,78.5 342.35,56.36 326.58,63 310.58,63 280.58,69.5 270.2,67.33
			260.27,69.95 251.38,67.86 		"/>
		<path fill="#FFFFFF" d="M409.29,85.88L382,89.25V103l117.79-8.56l49.65,33.06c0,0,3.45,4.25,4.7,9.25c0,0,11.22-11.25,13.47-19.25
			s6.49-15,6.49-15l3.24-4.1c0,0,1.5-2.15,0-3.15c0,0-5.25-1.75-5.5-3.25c0,0-9.25-4-21-3.25c-11.75,0.75-38.5-6.5-38.5-6.5
			s-4.5-1.75-10.75-2s-54.86-2.18-80,2.5c0,0-1.15,6.5-6.9,6S409.29,85.88,409.29,85.88"/>
	</g>
	<g id="future-development-open-space">
		<path fill="#FFFFFF" d="M394.79,212c0,0,10.1,24.92,21.87,33.75c11.78,8.83,9.25,23.19,9.25,23.19s0.84,7.18,5.47,10.96
			c0,0-0.55,8.84,1.7,14.09l-21.75,3.26c0,0-2.5-8-11.25-8.25l-5.29-46.1l-6.71-30.9H394.79z"/>
		<path fill="#FFFFFF" d="M296.58,347.5c0,0,8-8,9.5-18.75s9.5-15,9.5-15s3-2.75,14-3.5s30.75,1,30.75,1l25.5-3.5c0,0,0.5,3,5,7.25
			l6.75,26l-88.5,18l-3,2L296.58,347.5z"/>
	</g>
</g>
<g id="title_1_">
	<polygon fill="#FFFFFF" points="866.21,117.41 867.93,117.41 867.93,120.5 871.09,120.5 871.09,117.41 872.8,117.41 872.8,125.2
		871.09,125.2 871.09,122.07 867.93,122.07 867.93,125.2 866.21,125.2 	"/>
	<path fill="#FFFFFF" d="M882.34,117.36h1.58l3.34,7.84h-1.79l-0.71-1.75h-3.29l-0.71,1.75H879L882.34,117.36z M884.14,121.94
		l-1.03-2.53l-1.04,2.53H884.14z"/>
	<rect x="893.53" y="117.41" fill="#FFFFFF" width="1.71" height="7.79"/>
	<path fill="#FFFFFF" d="M901.85,121.33v-0.02c0-2.21,1.72-4.03,4.08-4.03c1.4,0,2.25,0.38,3.06,1.07l-1.08,1.3
		c-0.6-0.5-1.13-0.79-2.04-0.79c-1.25,0-2.24,1.1-2.24,2.43v0.02c0,1.42,0.98,2.47,2.36,2.47c0.62,0,1.18-0.15,1.61-0.47v-1.11
		h-1.72v-1.48h3.38v3.38c-0.8,0.68-1.9,1.24-3.33,1.24C903.51,125.33,901.85,123.63,901.85,121.33"/>
	<path fill="#FFFFFF" d="M924.25,117.41h3.18c1.86,0,2.98,1.1,2.98,2.69v0.02c0,1.8-1.4,2.74-3.15,2.74h-1.3v2.34h-1.71V117.41z
		 M927.32,121.34c0.86,0,1.36-0.51,1.36-1.18v-0.02c0-0.77-0.53-1.18-1.39-1.18h-1.32v2.38H927.32z"/>
	<path fill="#FFFFFF" d="M936.33,121.33v-0.02c0-2.21,1.75-4.03,4.15-4.03c2.4,0,4.13,1.79,4.13,4.01v0.02
		c0,2.21-1.75,4.03-4.15,4.03C938.06,125.33,936.33,123.54,936.33,121.33 M942.82,121.33v-0.02c0-1.33-0.98-2.45-2.36-2.45
		c-1.38,0-2.34,1.09-2.34,2.43v0.02c0,1.33,0.98,2.45,2.36,2.45C941.86,123.75,942.82,122.66,942.82,121.33"/>
	<rect x="951.21" y="117.41" fill="#FFFFFF" width="1.71" height="7.79"/>
	<polygon fill="#FFFFFF" points="959.87,117.41 961.45,117.41 965.1,122.21 965.1,117.41 966.79,117.41 966.79,125.2 965.33,125.2
		961.56,120.25 961.56,125.2 959.87,125.2 	"/>
	<polygon fill="#FFFFFF" points="975.47,118.99 973.1,118.99 973.1,117.41 979.55,117.41 979.55,118.99 977.18,118.99 977.18,125.2
		975.47,125.2 	"/>
	<path fill="#FFFFFF" d="M900.04,136.54v-0.02c0-2.21,1.67-4.03,4.06-4.03c1.47,0,2.35,0.49,3.07,1.2l-1.09,1.26
		c-0.6-0.54-1.21-0.88-1.99-0.88c-1.31,0-2.26,1.09-2.26,2.43v0.02c0,1.33,0.92,2.45,2.26,2.45c0.89,0,1.43-0.36,2.05-0.91l1.09,1.1
		c-0.8,0.86-1.69,1.39-3.19,1.39C901.74,140.55,900.04,138.78,900.04,136.54"/>
	<polygon fill="#FFFFFF" points="913.59,132.63 915.3,132.63 915.3,138.86 919.19,138.86 919.19,140.41 913.59,140.41 	"/>
	<path fill="#FFFFFF" d="M925.13,137.08v-4.45h1.71v4.4c0,1.27,0.63,1.93,1.68,1.93c1.04,0,1.68-0.63,1.68-1.87v-4.46h1.71v4.39
		c0,2.36-1.32,3.52-3.42,3.52C926.41,140.54,925.13,139.37,925.13,137.08"/>
	<path fill="#FFFFFF" d="M938.66,132.63h3.62c0.89,0,1.59,0.24,2.04,0.69c0.36,0.36,0.53,0.79,0.53,1.32v0.02
		c0,0.88-0.47,1.37-1.02,1.68c0.9,0.34,1.46,0.87,1.46,1.91v0.02c0,1.42-1.16,2.14-2.91,2.14h-3.7V132.63z M941.91,135.77
		c0.76,0,1.23-0.24,1.23-0.82v-0.02c0-0.51-0.4-0.8-1.12-0.8h-1.69v1.65H941.91z M942.37,138.91c0.76,0,1.21-0.27,1.21-0.85v-0.02
		c0-0.52-0.39-0.85-1.27-0.85h-1.98v1.71H942.37z"/>
</g>
<g id="title">
	<polygon fill="#FFFFFF" points="772.15,563.72 774.77,563.72 777.68,568.39 780.59,563.72 783.21,563.72 783.21,574.78
		780.79,574.78 780.79,567.56 777.68,572.28 777.62,572.28 774.54,567.6 774.54,574.78 772.15,574.78 	"/>
	<polygon fill="#FFFFFF" points="792.99,563.72 801.34,563.72 801.34,565.88 795.41,565.88 795.41,568.13 800.62,568.13
		800.62,570.29 795.41,570.29 795.41,572.61 801.41,572.61 801.41,574.78 792.99,574.78 	"/>
	<polygon fill="#FFFFFF" points="810.7,563.72 813.13,563.72 813.13,572.57 818.65,572.57 818.65,574.78 810.7,574.78 	"/>
	<path fill="#FFFFFF" d="M827.6,563.72h5.06c1.41,0,2.5,0.39,3.22,1.12c0.62,0.62,0.95,1.49,0.95,2.53v0.03
		c0,1.79-0.96,2.91-2.37,3.43l2.7,3.95h-2.85l-2.37-3.54h-1.91v3.54h-2.43V563.72z M832.5,569.09c1.19,0,1.87-0.63,1.87-1.56v-0.03
		c0-1.04-0.73-1.58-1.91-1.58h-2.42v3.18H832.5z"/>
	<path fill="#FFFFFF" d="M845.66,569.28v-0.03c0-3.15,2.48-5.72,5.9-5.72s5.87,2.55,5.87,5.69v0.03c0,3.15-2.48,5.72-5.9,5.72
		S845.66,572.43,845.66,569.28 M854.88,569.28v-0.03c0-1.9-1.39-3.48-3.35-3.48c-1.96,0-3.32,1.55-3.32,3.45v0.03
		c0,1.9,1.39,3.48,3.35,3.48C853.52,572.73,854.88,571.18,854.88,569.28"/>
	<path fill="#FFFFFF" d="M865.87,573.17l1.44-1.72c1,0.82,2.04,1.34,3.3,1.34c1,0,1.6-0.39,1.6-1.04v-0.03
		c0-0.62-0.38-0.93-2.23-1.41c-2.23-0.57-3.67-1.19-3.67-3.38v-0.03c0-2.01,1.61-3.33,3.87-3.33c1.61,0,2.99,0.51,4.11,1.41
		l-1.26,1.83c-0.98-0.68-1.95-1.09-2.88-1.09c-0.93,0-1.42,0.43-1.42,0.96v0.03c0,0.73,0.47,0.96,2.39,1.45
		c2.25,0.58,3.51,1.39,3.51,3.32v0.03c0,2.2-1.68,3.43-4.06,3.43C868.89,574.94,867.2,574.35,865.87,573.17"/>
	<polygon fill="#FFFFFF" points="883.87,563.72 892.21,563.72 892.21,565.88 886.28,565.88 886.28,568.13 891.5,568.13
		891.5,570.29 886.28,570.29 886.28,572.61 892.29,572.61 892.29,574.78 883.87,574.78 	"/>
	<path fill="#FFFFFF" d="M913.43,563.72h5.06c1.41,0,2.5,0.39,3.22,1.12c0.62,0.62,0.95,1.49,0.95,2.53v0.03
		c0,1.79-0.96,2.91-2.37,3.43l2.7,3.95h-2.85l-2.37-3.54h-1.91v3.54h-2.44V563.72z M918.33,569.09c1.19,0,1.87-0.63,1.87-1.56v-0.03
		c0-1.04-0.73-1.58-1.91-1.58h-2.42v3.18H918.33z"/>
	<polygon fill="#FFFFFF" points="931.98,563.72 940.33,563.72 940.33,565.88 934.4,565.88 934.4,568.13 939.62,568.13
		939.62,570.29 934.4,570.29 934.4,572.61 940.41,572.61 940.41,574.78 931.98,574.78 	"/>
	<path fill="#FFFFFF" d="M948.93,573.17l1.44-1.72c1,0.82,2.04,1.34,3.31,1.34c1,0,1.6-0.39,1.6-1.04v-0.03
		c0-0.62-0.38-0.93-2.23-1.41c-2.23-0.57-3.67-1.19-3.67-3.38v-0.03c0-2.01,1.61-3.33,3.87-3.33c1.61,0,2.99,0.51,4.11,1.41
		l-1.27,1.83c-0.98-0.68-1.94-1.09-2.88-1.09s-1.42,0.43-1.42,0.96v0.03c0,0.73,0.47,0.96,2.39,1.45c2.24,0.58,3.51,1.39,3.51,3.32
		v0.03c0,2.2-1.68,3.43-4.06,3.43C951.95,574.94,950.26,574.35,948.93,573.17"/>
	<path fill="#FFFFFF" d="M966.44,569.28v-0.03c0-3.15,2.48-5.72,5.9-5.72s5.87,2.55,5.87,5.69v0.03c0,3.15-2.48,5.72-5.9,5.72
		C968.89,574.97,966.44,572.43,966.44,569.28 M975.65,569.28v-0.03c0-1.9-1.39-3.48-3.35-3.48s-3.32,1.55-3.32,3.45v0.03
		c0,1.9,1.39,3.48,3.35,3.48C974.29,572.73,975.65,571.18,975.65,569.28"/>
	<path fill="#FFFFFF" d="M987.48,563.72h5.06c1.41,0,2.5,0.39,3.22,1.12c0.62,0.62,0.95,1.49,0.95,2.53v0.03
		c0,1.79-0.96,2.91-2.37,3.43l2.7,3.95h-2.85l-2.37-3.54h-1.91v3.54h-2.44V563.72z M992.38,569.09c1.19,0,1.87-0.63,1.87-1.56v-0.03
		c0-1.04-0.73-1.58-1.91-1.58h-2.42v3.18H992.38z"/>
	<polygon fill="#FFFFFF" points="1008.61,565.96 1005.24,565.96 1005.24,563.72 1014.41,563.72 1014.41,565.96 1011.04,565.96
		1011.04,574.78 1008.61,574.78 	"/>
	<path fill="#FFFFFF" d="M801.48,590.67v3.1h-1.15v-3.1h-3.15v-1.11h3.15v-3.1h1.15v3.1h3.16v1.11H801.48z M797.18,595.33h7.46v1.09
		h-7.46V595.33z"/>
	<path fill="#FFFFFF" d="M815.32,595.49c-0.89-0.89-1.39-2.02-1.39-4.29v-0.03c0-3.37,1.71-6.01,4.6-6.01
		c1.33,0,2.31,0.48,3.27,1.27l-0.73,0.96c-0.82-0.7-1.6-1.09-2.61-1.09c-2.01,0-3.26,2.02-3.24,4.88c0.6-0.89,1.53-1.69,3.15-1.69
		c2.05,0,3.82,1.33,3.82,3.4v0.03c0,2.13-1.72,3.68-3.97,3.68C817.01,596.61,816.01,596.18,815.32,595.49 M820.91,592.97v-0.03
		c0-1.36-1.11-2.37-2.7-2.37c-1.66,0-2.77,1.19-2.77,2.42v0.03c0,1.41,1.17,2.48,2.8,2.48S820.91,594.38,820.91,592.97"/>
	<path fill="#FFFFFF" d="M832.66,595.49c-0.89-0.89-1.39-2.02-1.39-4.29v-0.03c0-3.37,1.71-6.01,4.6-6.01
		c1.33,0,2.31,0.48,3.27,1.27l-0.73,0.96c-0.82-0.7-1.6-1.09-2.61-1.09c-2.01,0-3.26,2.02-3.24,4.88c0.6-0.89,1.53-1.69,3.15-1.69
		c2.05,0,3.82,1.33,3.82,3.4v0.03c0,2.13-1.72,3.68-3.97,3.68C834.35,596.61,833.36,596.18,832.66,595.49 M838.26,592.97v-0.03
		c0-1.36-1.11-2.37-2.7-2.37c-1.66,0-2.77,1.19-2.77,2.42v0.03c0,1.41,1.17,2.48,2.8,2.48S838.26,594.38,838.26,592.97"/>
	<path fill="#FFFFFF" d="M848.47,593.45v-0.03c0-1.31,0.95-2.25,2.28-2.72c-1.03-0.47-1.9-1.26-1.9-2.54v-0.03
		c0-1.71,1.76-2.92,3.78-2.92s3.78,1.22,3.78,2.92v0.03c0,1.28-0.87,2.07-1.9,2.54c1.31,0.49,2.28,1.39,2.28,2.7v0.03
		c0,1.88-1.8,3.15-4.16,3.15S848.47,595.3,848.47,593.45 M855.53,593.42v-0.03c0-1.23-1.28-2.1-2.89-2.1c-1.61,0-2.89,0.87-2.89,2.1
		v0.03c0,1.12,1.07,2.07,2.89,2.07S855.53,594.54,855.53,593.42 M855.16,588.23v-0.03c0-1.09-1.09-1.91-2.53-1.91
		c-1.44,0-2.53,0.8-2.53,1.91v0.03c0,1.2,1.12,2.02,2.53,2.02C854.04,590.25,855.16,589.43,855.16,588.23"/>
	<rect x="865.95" y="594.76" fill="#FFFFFF" width="1.46" height="1.66"/>
	<path fill="#FFFFFF" d="M876.38,590.92v-0.03c0-3.1,1.85-5.72,4.69-5.72c2.85,0,4.65,2.59,4.65,5.69v0.03
		c0,3.1-1.83,5.72-4.68,5.72C878.19,596.61,876.38,594.02,876.38,590.92 M884.43,590.92v-0.03c0-2.42-1.33-4.58-3.38-4.58
		c-2.07,0-3.37,2.12-3.37,4.55v0.03c0,2.42,1.33,4.58,3.4,4.58C883.15,595.47,884.43,593.34,884.43,590.92"/>
	<path fill="#FFFFFF" d="M911.34,585.27h1.17l5.04,11.15h-1.34l-1.3-2.92h-6.02l-1.31,2.92h-1.28L911.34,585.27z M914.43,592.37
		l-2.51-5.64l-2.53,5.64H914.43z"/>
	<path fill="#FFFFFF" d="M925.72,590.92v-0.03c0-3.13,2.34-5.72,5.6-5.72c2.01,0,3.21,0.71,4.31,1.75l-0.85,0.92
		c-0.93-0.89-1.97-1.52-3.48-1.52c-2.45,0-4.29,1.99-4.29,4.54v0.03c0,2.56,1.85,4.57,4.29,4.57c1.52,0,2.51-0.58,3.57-1.6
		l0.82,0.81c-1.15,1.17-2.42,1.94-4.43,1.94C928.08,596.61,925.72,594.1,925.72,590.92"/>
	<path fill="#FFFFFF" d="M945,585.35h4.76c1.36,0,2.45,0.41,3.14,1.11c0.54,0.54,0.85,1.31,0.85,2.18v0.03c0,1.83-1.26,2.91-3,3.22
		l3.4,4.52h-1.53l-3.21-4.3h-3.16v4.3H945V585.35z M949.64,591c1.66,0,2.85-0.85,2.85-2.28v-0.03c0-1.36-1.04-2.18-2.83-2.18h-3.41
		V591H949.64z"/>
	<polygon fill="#FFFFFF" points="963.54,585.35 971.54,585.35 971.54,586.49 964.79,586.49 964.79,590.27 970.83,590.27
		970.83,591.41 964.79,591.41 964.79,595.28 971.62,595.28 971.62,596.42 963.54,596.42 	"/>
	<path fill="#FFFFFF" d="M980.53,594.81l0.78-0.92c1.15,1.04,2.26,1.56,3.79,1.56c1.49,0,2.47-0.79,2.47-1.88v-0.03
		c0-1.03-0.55-1.61-2.88-2.1c-2.54-0.55-3.71-1.38-3.71-3.19v-0.03c0-1.74,1.53-3.02,3.63-3.02c1.61,0,2.77,0.46,3.89,1.36
		l-0.73,0.96c-1.03-0.84-2.05-1.2-3.19-1.2c-1.44,0-2.36,0.79-2.36,1.79v0.03c0,1.04,0.57,1.63,3,2.15c2.47,0.54,3.6,1.44,3.6,3.13
		v0.03c0,1.9-1.58,3.13-3.78,3.13C983.29,596.58,981.85,595.99,980.53,594.81"/>
</g>
</svg>
