<?xml version="1.0" encoding="utf-8"?>
<!-- Generator: Adobe Illustrator 16.0.4, SVG Export Plug-In . SVG Version: 6.00 Build 0)  -->
<!DOCTYPE svg PUBLIC "-//W3C//DTD SVG 1.1//EN" "http://www.w3.org/Graphics/SVG/1.1/DTD/svg11.dtd">
<svg version="1.1" id="Layer_1" xmlns="http://www.w3.org/2000/svg" xmlns:xlink="http://www.w3.org/1999/xlink" x="0px" y="0px"
	 width="4800px" height="2649px" viewBox="0 0 4800 2649" enable-background="new 0 0 4800 2649" xml:space="preserve">
<g id="background-image">
	<image overflow="visible" width="4800" height="2649" xlink:href="maps/daufuskie_hd.jpg" >
	</image>
</g>
<g id="landmarks-daufuskie">
	<g id="parcel-development-1" opacity="0.4">
		<path fill="#913939" d="M1375,1374.41h-18l-8,15.92l13,34.67l8.33,5.96
			c0,0,23.67-25.96,33-31.96s204.67-89.33,204.67-89.33l19.66,19.33l61.67-25.33L1774,1271l66.67-9.33c0,0,14,2.33,16.67,1
			s14.74-30.56,54-8.67c13.12,7.32,6.96,3.73,6.96,3.73l15.51-15.03l-92.18-50.28l-45.95-20.76l-22-6l-34.67,6.67
			c0,0-22,8.67-21.33,10.67s18.67,60-68.67,84S1375,1374.41,1375,1374.41z"/>
	</g>
	<g id="parcel-development-2" opacity="0.4">
		<path fill="#913939" d="M1494.33,1361.67c0,0,11.67,21.33,10.33,28.33
			s2.33,16,3.33,18.67s6,13,6,13l22.67-10.33l28-12.33l-14-23.33l97.67-29.33l-9.33-19l-10.67,4l-21.33-18.67L1494.33,1361.67z"/>
		<polygon fill="#913939" points="1648.33,1324.5 1656.33,1336.67 1786.33,1286
			1850,1304.33 1859,1277.33 1856,1265.33 1840.67,1263.33 1775,1273 		"/>
	</g>
	<g id="parcel-development-3" opacity="0.4">
		<path fill="#913939" d="M1707.67,1401.33l-8.33,3.33l38.17,60.15c0,0,8.83-4.15,18.5,4.68
			c4.57,4.18,19.67-10.5,19.67-10.5s-3.33-12.33-11-18.67c-9.66-7.98-22.67-12.67-27.17-14.67S1723,1415,1723,1415L1707.67,1401.33z
			"/>
		<path fill="#913939" d="M1756.67,1476.33l19,22.67l-85.33,49.67l-7.18,5.43l-17.82-11.93c0,0,5.67-6.5,6.33-17.5
			s15.67-20.33,26.33-22.67S1756.67,1476.33,1756.67,1476.33z"/>
	</g>
	<g id="enclave" opacity="0.4">
		<polygon fill="#913939" points="1397.67,1477 1484.33,1611 1507.67,1597 1513,1578.33 1499.67,1559
			1639,1491 1569,1399 	"/>
	</g>
	<g id="residence-club" opacity="0.4" >
		<path fill="#913939" d="M2172.15,1426.7l2.83,4.26c0,0,14.25-8.83,17.29-12.41
			c3.04-3.58,13.24-13.74,15.31-15.32c2.06-1.58,36.42-30.92,37.76-31.6c1.34-0.68,18.23-13.93,19.24-14.48
			c1.01-0.55,10.59-9.16,10.59-9.16l2.33-6.37l7.49-4.95l-2.29-17.52l-9.44,1.57c0,0-5.21-2.71-7.34-2.25
			c-2.12,0.45-5.4-0.59-5.4-0.59l-6.71,0.9l-0.42,3.55l-7.21,1.76l-4.44,1.21l-9.36,6.07l9.62,10.79l2.64-0.89l5.2,2.87
			c0,0,1.92,0.01,3.12,0.92c1.2,0.91-0.64,3.63-0.69,4.11c-0.04,0.48,1.66,4.8,2.14,4.84c0.48,0.04,2.69,0.4,2.97,0.91
			c0.28,0.51-1.86,2.88-1.76,3.53c0.1,0.65-11.55,7.31-11.55,7.31l-26.21-10.02c0,0-11.62,2.66-11.5,3.15
			c0.12,0.49,7.92,20.91,7.92,20.91l-5.39,6.58l1.23,2.35c0,0-2.75,0.24-2.79,0.71c-0.04,0.48-1.3,1.97-1.18,2.46
			c0.12,0.49-1.39,4.85-1.39,4.85s-2.36,3.16-2.41,3.64C2202.35,1400.84,2172.15,1426.7,2172.15,1426.7z"/>
	</g>
	<g id="beach-cottages" opacity="0.4">
		<path fill="#913939" d="M2077.88,1548.62l39.88-26.25l10.58-17.04l31.33-41.67L2132,1439l8-5.67
			l-9.33-12.33l-105.17,42.5c0,0-23.17,6.25-24.5,7.25s-7,13.25-7,13.25s0.21,10.54,2,10.67
			C2002.38,1495.12,2077.88,1548.62,2077.88,1548.62z"/>
	</g>
	<g id="beach-villas" opacity="0.4">
		<path fill="#913939" d="M2279.97,1305.23l-3.09,14.02l6.75-1.38l0.75,8.38l1.75,10.12
			c0,0-2.69,3.63-6.32,5.38c-3.5,1.69-0.28,3.84-0.28,3.84l5.94,4.79c0,0,10.36,3.17,10.84,3.53s44.56-31.39,44.56-31.39
			s11.54-7.41,13.08-8.28s15.06-11.39,15.06-11.39l13.51-10.36l6.21-4.21l-2.75-8.81l-7.32-0.35l-1.3,2.77l-24.1,5.01l-7.5-0.19
			l-6.35,0.2l-23.79,8.87l-5.06,1.09L2279.97,1305.23z"/>
	</g>
	<g id="tennis-villas" opacity="0.4">
		<path fill="#913939" d="M1917.17,1579l22.17-6.33l15.17,1.5l15.5-10.67l5-15.17
			c0,0,6.83,2.17,7.5-4.5s-2-14.5-2-14.5l6.67-7l-19.33-17l-21.33,2.92l-22.17,11.42l-22.17-3.5l-16,14.33
			C1886.17,1530.5,1896.17,1563.33,1917.17,1579z"/>
	</g>
	<g id="the-inn" opacity="0.4">
		<path fill="#913939" d="M1898.75,1599.5l3.75,15.5l12.5,2l11.5-6.25l10.75,0.5l6.25,3.75l-10.75,2
			l-1,2.25h-8.5L1920,1622l34.25,46l8.5-14l69-44.75l47-3.5c0,0-11-20.5,36.75-69.25l2.25-11.75l-40.25,25.5l-52.5-37h-9.75l-7-5
			l-25,20.75c0,0-0.17,10.43,0.75,12.5c3,6.75-6,10.25-6.92,8.67c-0.18-0.31-3.75,13.08-3.75,13.08l-13.17,11.42l-3.83,1.67
			l-16.5-0.5l-20.67,7.17l0.83,5.12l-8.36,6.58L1898.75,1599.5z"/>
	</g>
	<g id="melrose-landing" opacity="0.4">
		<path fill="#913939" d="M1485.83,919.25c0.45,0.92,0.12,30.73,0.12,30.73l0.21,6.35l3,20.38
			l-91-71.05l4.5-1.83c1.55,0.38,11.77,3.84,11.77,3.84l2.15,4.87c0,0,1.05-4.85,1.5-4.38c0.46,0.46,11.76,5.88,11.76,5.88l8.19,6.48
			l4.79,1.81l38.08-0.58L1485.83,919.25z"/>
	</g>
	<g id="palmetto-bay-marina" opacity="0.4">
		<path fill="#913939" d="M4337.1,131.84l-1.26,16.19c0,0-7.14,0.69-8.93-0.93
			c-3.54-3.19-1.2,8.43,0.18,10.39c1.97,2.81,9.23,7.32,9.23,7.32l9.89,4.76l16.97-4.04l0.77-6.44l7.09-4.46l-1.79-4.47l-10.55,2.77
			l-16.25-10.81l0.71-10.72l0.18-5.66l-5.72-1.13L4337.1,131.84z"/>
	</g>
</g>
</svg>
